solid unnamed
facet normal -0.70710695 0.70710659 0
    outer loop
        vertex -40.05 21.050001 2.2
        vertex -40.05 21.050001 0
        vertex -43.05 18.05 2.2
    endloop
endfacet
facet normal -0.70710695 0.70710659 0
    outer loop
        vertex -43.05 18.05 2.2
        vertex -40.05 21.050001 0
        vertex -43.05 18.05 0
    endloop
endfacet
facet normal -1 -0 -0
    outer loop
        vertex -43.05 18.05 2.2
        vertex -43.05 18.05 0
        vertex -43.05 -18.05 2.2
    endloop
endfacet
facet normal -1 0 0
    outer loop
        vertex -43.05 -18.05 2.2
        vertex -43.05 18.05 0
        vertex -43.05 -0 0
    endloop
endfacet
facet normal -1 0 0
    outer loop
        vertex -43.05 -18.05 2.2
        vertex -43.05 -0 0
        vertex -43.05 -18.05 0
    endloop
endfacet
facet normal -0.70710695 -0.70710659 -0
    outer loop
        vertex -43.05 -18.05 2.2
        vertex -43.05 -18.05 0
        vertex -40.05 -21.050001 2.2
    endloop
endfacet
facet normal -0.70710695 -0.70710659 -0
    outer loop
        vertex -40.05 -21.050001 2.2
        vertex -43.05 -18.05 0
        vertex -40.05 -21.050001 0
    endloop
endfacet
facet normal 0 -1 0
    outer loop
        vertex -40.05 -21.050001 2.2
        vertex -40.05 -21.050001 0
        vertex 40.05 -21.050001 2.2
    endloop
endfacet
facet normal 0 -1 -0
    outer loop
        vertex 40.05 -21.050001 2.2
        vertex -40.05 -21.050001 0
        vertex 40.05 -21.050001 0
    endloop
endfacet
facet normal 0.70710695 -0.70710659 0
    outer loop
        vertex 40.05 -21.050001 2.2
        vertex 40.05 -21.050001 0
        vertex 43.05 -18.05 2.2
    endloop
endfacet
facet normal 0.70710695 -0.70710659 0
    outer loop
        vertex 43.05 -18.05 2.2
        vertex 40.05 -21.050001 0
        vertex 43.05 -18.05 0
    endloop
endfacet
facet normal 1 -0 0
    outer loop
        vertex 43.05 -18.05 2.2
        vertex 43.05 -18.05 0
        vertex 43.05 18.05 2.2
    endloop
endfacet
facet normal 1 0 0
    outer loop
        vertex 43.05 18.05 2.2
        vertex 43.05 -18.05 0
        vertex 43.05 -0 0
    endloop
endfacet
facet normal 1 0 0
    outer loop
        vertex 43.05 18.05 2.2
        vertex 43.05 -0 0
        vertex 43.05 18.05 0
    endloop
endfacet
facet normal 0.70710695 0.70710659 0
    outer loop
        vertex 43.05 18.05 2.2
        vertex 43.05 18.05 0
        vertex 40.05 21.050001 2.2
    endloop
endfacet
facet normal 0.70710695 0.70710659 0
    outer loop
        vertex 40.05 21.050001 2.2
        vertex 43.05 18.05 0
        vertex 40.05 21.050001 0
    endloop
endfacet
facet normal 0 1 0
    outer loop
        vertex 40.05 21.050001 2.2
        vertex 40.05 21.050001 0
        vertex -40.05 21.050001 2.2
    endloop
endfacet
facet normal 0 1 0
    outer loop
        vertex -40.05 21.050001 2.2
        vertex 40.05 21.050001 0
        vertex -40.05 21.050001 0
    endloop
endfacet
facet normal -0 0 -1
    outer loop
        vertex 39.35 -0 0
        vertex 35.05 -17.349998 0
        vertex 35.05 17.349998 0
    endloop
endfacet
facet normal -0 0 -1
    outer loop
        vertex 39.35 -13.05 0
        vertex 35.05 -17.349998 0
        vertex 39.35 -0 0
    endloop
endfacet
facet normal 0 0 -1
    outer loop
        vertex 40.55 -0 0
        vertex 40.55 13.05 0
        vertex 43.05 -0 0
    endloop
endfacet
facet normal 0 0 -1
    outer loop
        vertex -39.35 -0 0
        vertex -35.05 17.349998 0
        vertex -35.05 -17.349998 0
    endloop
endfacet
facet normal -0 -0 -1
    outer loop
        vertex -40.55 -0 0
        vertex -40.55 -13.05 0
        vertex -43.05 -0 0
    endloop
endfacet
facet normal 0 -0 -1
    outer loop
        vertex 43.05 -0 0
        vertex 43.05 -18.05 0
        vertex 40.55 -13.05 0
    endloop
endfacet
facet normal 0 0 -1
    outer loop
        vertex -43.05 -0 0
        vertex -43.05 18.05 0
        vertex -40.55 13.05 0
    endloop
endfacet
facet normal -0 -0 -1
    outer loop
        vertex 39.35 13.05 0
        vertex 39.35 -0 0
        vertex 35.05 17.349998 0
    endloop
endfacet
facet normal 0 0 -0.99999994
    outer loop
        vertex 39.35 13.05 0
        vertex 43.05 18.05 0
        vertex 40.55 13.05 0
    endloop
endfacet
facet normal 0 0 -1
    outer loop
        vertex 40.55 -0 0
        vertex 43.05 -0 0
        vertex 40.55 -13.05 0
    endloop
endfacet
facet normal -0 -0 -0.99999994
    outer loop
        vertex 40.55 -13.05 0
        vertex 43.05 -18.05 0
        vertex 39.35 -13.05 0
    endloop
endfacet
facet normal 0 0 -1
    outer loop
        vertex 43.05 -18.05 0
        vertex 35.05 -17.349998 0
        vertex 39.35 -13.05 0
    endloop
endfacet
facet normal 0 0 -1
    outer loop
        vertex 39.35 13.05 0
        vertex 35.05 17.349998 0
        vertex 43.05 18.05 0
    endloop
endfacet
facet normal 0 -0 -1
    outer loop
        vertex -40.55 13.05 0
        vertex -40.55 -0 0
        vertex -43.05 -0 0
    endloop
endfacet
facet normal 0 0 -0.99999994
    outer loop
        vertex -40.55 13.05 0
        vertex -43.05 18.05 0
        vertex -39.35 13.05 0
    endloop
endfacet
facet normal 0 0 -1
    outer loop
        vertex -39.35 -0 0
        vertex -35.05 -17.349998 0
        vertex -39.35 -13.05 0
    endloop
endfacet
facet normal 0 0 -1
    outer loop
        vertex -39.35 13.05 0
        vertex -35.05 17.349998 0
        vertex -39.35 -0 0
    endloop
endfacet
facet normal 0 -0 -1
    outer loop
        vertex -39.35 -13.05 0
        vertex -35.05 -17.349998 0
        vertex -43.05 -18.05 0
    endloop
endfacet
facet normal 0 0 -1
    outer loop
        vertex -39.35 13.05 0
        vertex -43.05 18.05 0
        vertex -35.05 17.349998 0
    endloop
endfacet
facet normal 0 0 -1
    outer loop
        vertex -35.05 18.55 0
        vertex -40.05 21.050001 0
        vertex 35.05 18.55 0
    endloop
endfacet
facet normal 0 0 -1
    outer loop
        vertex -35.05 17.349998 0
        vertex 35.05 17.349998 0
        vertex -35.05 -17.349998 0
    endloop
endfacet
facet normal 0 0 -0.99999994
    outer loop
        vertex -35.05 17.349998 0
        vertex -43.05 18.05 0
        vertex -40.05 21.050001 0
    endloop
endfacet
facet normal 0 0 -0.99999994
    outer loop
        vertex 35.05 17.349998 0
        vertex 40.05 21.050001 0
        vertex 43.05 18.05 0
    endloop
endfacet
facet normal 0 0 -1
    outer loop
        vertex -35.05 17.349998 0
        vertex -40.05 21.050001 0
        vertex -35.05 18.55 0
    endloop
endfacet
facet normal 0 0 -1
    outer loop
        vertex -35.05 -17.349998 0
        vertex 35.05 17.349998 0
        vertex 35.05 -17.349998 0
    endloop
endfacet
facet normal 0 0 -1
    outer loop
        vertex -43.05 -18.05 0
        vertex -40.55 -13.05 0
        vertex -39.35 -13.05 0
    endloop
endfacet
facet normal 0 -0 -1
    outer loop
        vertex 35.05 -18.55 0
        vertex 40.05 -21.050001 0
        vertex -40.05 -21.050001 0
    endloop
endfacet
facet normal 0 0 -1
    outer loop
        vertex 35.05 18.55 0
        vertex -40.05 21.050001 0
        vertex 40.05 21.050001 0
    endloop
endfacet
facet normal 0 0 -0.99999994
    outer loop
        vertex 35.05 -17.349998 0
        vertex 43.05 -18.05 0
        vertex 40.05 -21.050001 0
    endloop
endfacet
facet normal 0 0 -1
    outer loop
        vertex 35.05 17.349998 0
        vertex 35.05 18.55 0
        vertex 40.05 21.050001 0
    endloop
endfacet
facet normal 0 0 -1
    outer loop
        vertex -40.05 -21.050001 0
        vertex -35.05 -18.55 0
        vertex 35.05 -18.55 0
    endloop
endfacet
facet normal 0 0 -1
    outer loop
        vertex 40.05 -21.050001 0
        vertex 35.05 -18.55 0
        vertex 35.05 -17.349998 0
    endloop
endfacet
facet normal 0 -0 -1
    outer loop
        vertex -35.05 -17.349998 0
        vertex -35.05 -18.55 0
        vertex -40.05 -21.050001 0
    endloop
endfacet
facet normal 0 0 -1
    outer loop
        vertex 43.05 -0 0
        vertex 40.55 13.05 0
        vertex 43.05 18.05 0
    endloop
endfacet
facet normal 0 0 -1
    outer loop
        vertex -43.05 -18.05 0
        vertex -43.05 -0 0
        vertex -40.55 -13.05 0
    endloop
endfacet
facet normal 0 0 -0.99999994
    outer loop
        vertex -35.05 -17.349998 0
        vertex -40.05 -21.050001 0
        vertex -43.05 -18.05 0
    endloop
endfacet
facet normal 0 -0 1
    outer loop
        vertex 31.525002 9 2.2
        vertex 40.05 21.050001 2.2
        vertex 29.675 9 2.2
    endloop
endfacet
facet normal 0 0 1
    outer loop
        vertex 31.525002 9 2.2
        vertex 29.675 9 2.2
        vertex 31.525002 -9 2.2
    endloop
endfacet
facet normal 0 0 1
    outer loop
        vertex 31.525002 -9 2.2
        vertex 29.675 -9 2.2
        vertex 40.05 -21.050001 2.2
    endloop
endfacet
facet normal -0 0 1
    outer loop
        vertex 32.875 -9 2.2
        vertex 43.05 -18.05 2.2
        vertex 32.875 9 2.2
    endloop
endfacet
facet normal -0 0 1
    outer loop
        vertex 32.875 9 2.2
        vertex 43.05 -18.05 2.2
        vertex 43.05 18.05 2.2
    endloop
endfacet
facet normal 0 0 1
    outer loop
        vertex 31.525002 -9 2.2
        vertex 29.675 9 2.2
        vertex 29.675 -9 2.2
    endloop
endfacet
facet normal 0 -0 1
    outer loop
        vertex 28.325 9 2.2
        vertex 40.05 21.050001 2.2
        vertex 26.474998 9 2.2
    endloop
endfacet
facet normal 0 0 1
    outer loop
        vertex 28.325 9 2.2
        vertex 26.474998 9 2.2
        vertex 28.325 -9 2.2
    endloop
endfacet
facet normal 0 0 1
    outer loop
        vertex 28.325 -9 2.2
        vertex 26.474998 -9 2.2
        vertex 40.05 -21.050001 2.2
    endloop
endfacet
facet normal -0 0 1
    outer loop
        vertex 31.525002 -9 2.2
        vertex 40.05 -21.050001 2.2
        vertex 32.875 -9 2.2
    endloop
endfacet
facet normal 0 0 0.99999994
    outer loop
        vertex 40.05 21.050001 2.2
        vertex 32.875 9 2.2
        vertex 43.05 18.05 2.2
    endloop
endfacet
facet normal 0 0 1
    outer loop
        vertex 28.325 -9 2.2
        vertex 26.474998 9 2.2
        vertex 26.474998 -9 2.2
    endloop
endfacet
facet normal 0 -0 1
    outer loop
        vertex 25.125 9 2.2
        vertex 40.05 21.050001 2.2
        vertex -25.125 9 2.2
    endloop
endfacet
facet normal 0 0 0.99999994
    outer loop
        vertex 25.125 9 2.2
        vertex -25.125 9 2.2
        vertex 25.125 -9 2.2
    endloop
endfacet
facet normal 0 0 1
    outer loop
        vertex 25.125 -9 2.2
        vertex -25.125 -9 2.2
        vertex 40.05 -21.050001 2.2
    endloop
endfacet
facet normal 0 0 1
    outer loop
        vertex 26.474998 -9 2.2
        vertex 25.125 -9 2.2
        vertex 40.05 -21.050001 2.2
    endloop
endfacet
facet normal 0 0 1
    outer loop
        vertex 29.675 -9 2.2
        vertex 28.325 -9 2.2
        vertex 40.05 -21.050001 2.2
    endloop
endfacet
facet normal 0 0 0.99999994
    outer loop
        vertex 25.125 -9 2.2
        vertex -25.125 9 2.2
        vertex -25.125 -9 2.2
    endloop
endfacet
facet normal 0 0 1
    outer loop
        vertex -26.474998 9 2.2
        vertex -40.05 21.050001 2.2
        vertex -28.325 9 2.2
    endloop
endfacet
facet normal 0 0 1
    outer loop
        vertex -26.474998 9 2.2
        vertex -28.325 9 2.2
        vertex -26.474998 -9 2.2
    endloop
endfacet
facet normal 0 0 1
    outer loop
        vertex -26.474998 -9 2.2
        vertex -28.325 -9 2.2
        vertex -40.05 -21.050001 2.2
    endloop
endfacet
facet normal 0 0 0.99999994
    outer loop
        vertex 32.875 -9 2.2
        vertex 40.05 -21.050001 2.2
        vertex 43.05 -18.05 2.2
    endloop
endfacet
facet normal 0 0 1
    outer loop
        vertex 25.125 9 2.2
        vertex 26.474998 9 2.2
        vertex 40.05 21.050001 2.2
    endloop
endfacet
facet normal 0 0 1
    outer loop
        vertex -26.474998 -9 2.2
        vertex -28.325 9 2.2
        vertex -28.325 -9 2.2
    endloop
endfacet
facet normal 0 0 1
    outer loop
        vertex -29.675 9 2.2
        vertex -40.05 21.050001 2.2
        vertex -31.525002 9 2.2
    endloop
endfacet
facet normal 0 0 1
    outer loop
        vertex -29.675 9 2.2
        vertex -31.525002 9 2.2
        vertex -29.675 -9 2.2
    endloop
endfacet
facet normal 0 0 1
    outer loop
        vertex -29.675 -9 2.2
        vertex -31.525002 -9 2.2
        vertex -40.05 -21.050001 2.2
    endloop
endfacet
facet normal -0 0 1
    outer loop
        vertex -26.474998 -9 2.2
        vertex -40.05 -21.050001 2.2
        vertex -25.125 -9 2.2
    endloop
endfacet
facet normal -0 0 0.99999994
    outer loop
        vertex -40.05 21.050001 2.2
        vertex -25.125 9 2.2
        vertex 40.05 21.050001 2.2
    endloop
endfacet
facet normal 0 0 1
    outer loop
        vertex -29.675 -9 2.2
        vertex -31.525002 9 2.2
        vertex -31.525002 -9 2.2
    endloop
endfacet
facet normal 0 0 1
    outer loop
        vertex -32.875 9 2.2
        vertex -43.05 18.05 2.2
        vertex -32.875 -9 2.2
    endloop
endfacet
facet normal 0 -0 1
    outer loop
        vertex -32.875 9 2.2
        vertex -31.525002 9 2.2
        vertex -40.05 21.050001 2.2
    endloop
endfacet
facet normal -0 0 1
    outer loop
        vertex -29.675 -9 2.2
        vertex -40.05 -21.050001 2.2
        vertex -28.325 -9 2.2
    endloop
endfacet
facet normal 0 0 1
    outer loop
        vertex -25.125 -9 2.2
        vertex -40.05 -21.050001 2.2
        vertex 40.05 -21.050001 2.2
    endloop
endfacet
facet normal 0 0 0.99999994
    outer loop
        vertex -32.875 -9 2.2
        vertex -43.05 -18.05 2.2
        vertex -40.05 -21.050001 2.2
    endloop
endfacet
facet normal 0 0 0.99999994
    outer loop
        vertex -32.875 9 2.2
        vertex -40.05 21.050001 2.2
        vertex -43.05 18.05 2.2
    endloop
endfacet
facet normal 0 -0 1
    outer loop
        vertex 29.675 9 2.2
        vertex 40.05 21.050001 2.2
        vertex 28.325 9 2.2
    endloop
endfacet
facet normal 0 -0 1
    outer loop
        vertex -29.675 9 2.2
        vertex -28.325 9 2.2
        vertex -40.05 21.050001 2.2
    endloop
endfacet
facet normal 0 -0 1
    outer loop
        vertex -26.474998 9 2.2
        vertex -25.125 9 2.2
        vertex -40.05 21.050001 2.2
    endloop
endfacet
facet normal -0 0 1
    outer loop
        vertex -32.875 -9 2.2
        vertex -40.05 -21.050001 2.2
        vertex -31.525002 -9 2.2
    endloop
endfacet
facet normal 0 -0 1
    outer loop
        vertex 32.875 9 2.2
        vertex 40.05 21.050001 2.2
        vertex 31.525002 9 2.2
    endloop
endfacet
facet normal 0 0 1
    outer loop
        vertex -43.05 18.05 2.2
        vertex -43.05 -18.05 2.2
        vertex -32.875 -9 2.2
    endloop
endfacet
facet normal 0 0 1
    outer loop
        vertex -32.875 -9 3.35
        vertex -31.525002 -9 3.35
        vertex -32.875 9 3.35
    endloop
endfacet
facet normal -0 0 1
    outer loop
        vertex -32.875 9 3.35
        vertex -31.525002 -9 3.35
        vertex -31.525002 9 3.35
    endloop
endfacet
facet normal 0 -1 0
    outer loop
        vertex -32.875 -9 2.2
        vertex -31.525002 -9 2.2
        vertex -32.875 -9 3.35
    endloop
endfacet
facet normal 0 -1 0
    outer loop
        vertex -32.875 -9 3.35
        vertex -31.525002 -9 2.2
        vertex -31.525002 -9 3.35
    endloop
endfacet
facet normal -1 0 0
    outer loop
        vertex -32.875 9 2.2
        vertex -32.875 -9 2.2
        vertex -32.875 9 3.35
    endloop
endfacet
facet normal -1 -0 0
    outer loop
        vertex -32.875 9 3.35
        vertex -32.875 -9 2.2
        vertex -32.875 -9 3.35
    endloop
endfacet
facet normal 0 1 -0
    outer loop
        vertex -31.525002 9 2.2
        vertex -32.875 9 2.2
        vertex -31.525002 9 3.35
    endloop
endfacet
facet normal 0 1 0
    outer loop
        vertex -31.525002 9 3.35
        vertex -32.875 9 2.2
        vertex -32.875 9 3.35
    endloop
endfacet
facet normal 1 0 0
    outer loop
        vertex -31.525002 -9 2.2
        vertex -31.525002 9 2.2
        vertex -31.525002 -9 3.35
    endloop
endfacet
facet normal 1 -0 0
    outer loop
        vertex -31.525002 -9 3.35
        vertex -31.525002 9 2.2
        vertex -31.525002 9 3.35
    endloop
endfacet
facet normal 0 0 1
    outer loop
        vertex -29.675 -9 3.35
        vertex -28.325 -9 3.35
        vertex -29.675 9 3.35
    endloop
endfacet
facet normal -0 0 1
    outer loop
        vertex -29.675 9 3.35
        vertex -28.325 -9 3.35
        vertex -28.325 9 3.35
    endloop
endfacet
facet normal 0 -1 0
    outer loop
        vertex -29.675 -9 2.2
        vertex -28.325 -9 2.2
        vertex -29.675 -9 3.35
    endloop
endfacet
facet normal 0 -1 0
    outer loop
        vertex -29.675 -9 3.35
        vertex -28.325 -9 2.2
        vertex -28.325 -9 3.35
    endloop
endfacet
facet normal -1 0 0
    outer loop
        vertex -29.675 9 2.2
        vertex -29.675 -9 2.2
        vertex -29.675 9 3.35
    endloop
endfacet
facet normal -1 -0 0
    outer loop
        vertex -29.675 9 3.35
        vertex -29.675 -9 2.2
        vertex -29.675 -9 3.35
    endloop
endfacet
facet normal 0 1 -0
    outer loop
        vertex -28.325 9 2.2
        vertex -29.675 9 2.2
        vertex -28.325 9 3.35
    endloop
endfacet
facet normal 0 1 0
    outer loop
        vertex -28.325 9 3.35
        vertex -29.675 9 2.2
        vertex -29.675 9 3.35
    endloop
endfacet
facet normal 1 0 0
    outer loop
        vertex -28.325 -9 2.2
        vertex -28.325 9 2.2
        vertex -28.325 -9 3.35
    endloop
endfacet
facet normal 1 -0 0
    outer loop
        vertex -28.325 -9 3.35
        vertex -28.325 9 2.2
        vertex -28.325 9 3.35
    endloop
endfacet
facet normal 0 0 1
    outer loop
        vertex -26.474998 -9 3.35
        vertex -25.125 -9 3.35
        vertex -26.474998 9 3.35
    endloop
endfacet
facet normal -0 0 1
    outer loop
        vertex -26.474998 9 3.35
        vertex -25.125 -9 3.35
        vertex -25.125 9 3.35
    endloop
endfacet
facet normal 0 -1 0
    outer loop
        vertex -26.474998 -9 2.2
        vertex -25.125 -9 2.2
        vertex -26.474998 -9 3.35
    endloop
endfacet
facet normal 0 -1 0
    outer loop
        vertex -26.474998 -9 3.35
        vertex -25.125 -9 2.2
        vertex -25.125 -9 3.35
    endloop
endfacet
facet normal 0 1 -0
    outer loop
        vertex -25.125 9 2.2
        vertex -26.474998 9 2.2
        vertex -25.125 9 3.35
    endloop
endfacet
facet normal 0 1 0
    outer loop
        vertex -25.125 9 3.35
        vertex -26.474998 9 2.2
        vertex -26.474998 9 3.35
    endloop
endfacet
facet normal 1 0 0
    outer loop
        vertex -25.125 -9 2.2
        vertex -25.125 9 2.2
        vertex -25.125 -9 3.35
    endloop
endfacet
facet normal 1 -0 0
    outer loop
        vertex -25.125 -9 3.35
        vertex -25.125 9 2.2
        vertex -25.125 9 3.35
    endloop
endfacet
facet normal -1 0 0
    outer loop
        vertex -26.474998 9 2.2
        vertex -26.474998 -9 2.2
        vertex -26.474998 9 3.35
    endloop
endfacet
facet normal -1 -0 0
    outer loop
        vertex -26.474998 9 3.35
        vertex -26.474998 -9 2.2
        vertex -26.474998 -9 3.35
    endloop
endfacet
facet normal 0 0 1
    outer loop
        vertex 25.125 -9 3.35
        vertex 26.474998 -9 3.35
        vertex 25.125 9 3.35
    endloop
endfacet
facet normal -0 0 1
    outer loop
        vertex 25.125 9 3.35
        vertex 26.474998 -9 3.35
        vertex 26.474998 9 3.35
    endloop
endfacet
facet normal 0 -1 0
    outer loop
        vertex 25.125 -9 2.2
        vertex 26.474998 -9 2.2
        vertex 25.125 -9 3.35
    endloop
endfacet
facet normal 0 -1 0
    outer loop
        vertex 25.125 -9 3.35
        vertex 26.474998 -9 2.2
        vertex 26.474998 -9 3.35
    endloop
endfacet
facet normal -1 0 0
    outer loop
        vertex 25.125 9 2.2
        vertex 25.125 -9 2.2
        vertex 25.125 9 3.35
    endloop
endfacet
facet normal -1 -0 0
    outer loop
        vertex 25.125 9 3.35
        vertex 25.125 -9 2.2
        vertex 25.125 -9 3.35
    endloop
endfacet
facet normal 0 1 -0
    outer loop
        vertex 26.474998 9 2.2
        vertex 25.125 9 2.2
        vertex 26.474998 9 3.35
    endloop
endfacet
facet normal 0 1 0
    outer loop
        vertex 26.474998 9 3.35
        vertex 25.125 9 2.2
        vertex 25.125 9 3.35
    endloop
endfacet
facet normal 1 0 0
    outer loop
        vertex 26.474998 -9 2.2
        vertex 26.474998 9 2.2
        vertex 26.474998 -9 3.35
    endloop
endfacet
facet normal 1 -0 0
    outer loop
        vertex 26.474998 -9 3.35
        vertex 26.474998 9 2.2
        vertex 26.474998 9 3.35
    endloop
endfacet
facet normal 0 0 1
    outer loop
        vertex 28.325 -9 3.35
        vertex 29.675 -9 3.35
        vertex 28.325 9 3.35
    endloop
endfacet
facet normal -0 0 1
    outer loop
        vertex 28.325 9 3.35
        vertex 29.675 -9 3.35
        vertex 29.675 9 3.35
    endloop
endfacet
facet normal 0 -1 0
    outer loop
        vertex 28.325 -9 2.2
        vertex 29.675 -9 2.2
        vertex 28.325 -9 3.35
    endloop
endfacet
facet normal 0 -1 0
    outer loop
        vertex 28.325 -9 3.35
        vertex 29.675 -9 2.2
        vertex 29.675 -9 3.35
    endloop
endfacet
facet normal -1 0 0
    outer loop
        vertex 28.325 9 2.2
        vertex 28.325 -9 2.2
        vertex 28.325 9 3.35
    endloop
endfacet
facet normal -1 -0 0
    outer loop
        vertex 28.325 9 3.35
        vertex 28.325 -9 2.2
        vertex 28.325 -9 3.35
    endloop
endfacet
facet normal 0 1 -0
    outer loop
        vertex 29.675 9 2.2
        vertex 28.325 9 2.2
        vertex 29.675 9 3.35
    endloop
endfacet
facet normal 0 1 0
    outer loop
        vertex 29.675 9 3.35
        vertex 28.325 9 2.2
        vertex 28.325 9 3.35
    endloop
endfacet
facet normal 1 0 0
    outer loop
        vertex 29.675 -9 2.2
        vertex 29.675 9 2.2
        vertex 29.675 -9 3.35
    endloop
endfacet
facet normal 1 -0 0
    outer loop
        vertex 29.675 -9 3.35
        vertex 29.675 9 2.2
        vertex 29.675 9 3.35
    endloop
endfacet
facet normal 0 0 1
    outer loop
        vertex 31.525002 -9 3.35
        vertex 32.875 -9 3.35
        vertex 31.525002 9 3.35
    endloop
endfacet
facet normal -0 0 1
    outer loop
        vertex 31.525002 9 3.35
        vertex 32.875 -9 3.35
        vertex 32.875 9 3.35
    endloop
endfacet
facet normal 0 -1 0
    outer loop
        vertex 31.525002 -9 2.2
        vertex 32.875 -9 2.2
        vertex 31.525002 -9 3.35
    endloop
endfacet
facet normal 0 -1 0
    outer loop
        vertex 31.525002 -9 3.35
        vertex 32.875 -9 2.2
        vertex 32.875 -9 3.35
    endloop
endfacet
facet normal -1 0 0
    outer loop
        vertex 31.525002 9 2.2
        vertex 31.525002 -9 2.2
        vertex 31.525002 9 3.35
    endloop
endfacet
facet normal -1 -0 0
    outer loop
        vertex 31.525002 9 3.35
        vertex 31.525002 -9 2.2
        vertex 31.525002 -9 3.35
    endloop
endfacet
facet normal 0 1 -0
    outer loop
        vertex 32.875 9 2.2
        vertex 31.525002 9 2.2
        vertex 32.875 9 3.35
    endloop
endfacet
facet normal 0 1 0
    outer loop
        vertex 32.875 9 3.35
        vertex 31.525002 9 2.2
        vertex 31.525002 9 3.35
    endloop
endfacet
facet normal 1 0 0
    outer loop
        vertex 32.875 -9 2.2
        vertex 32.875 9 2.2
        vertex 32.875 -9 3.35
    endloop
endfacet
facet normal 1 -0 0
    outer loop
        vertex 32.875 -9 3.35
        vertex 32.875 9 2.2
        vertex 32.875 9 3.35
    endloop
endfacet
facet normal 1 -0 0
    outer loop
        vertex 35.05 -18.55 0
        vertex 35.05 -18.55 -3.1999998
        vertex 35.05 -17.349998 0
    endloop
endfacet
facet normal 1 0 0
    outer loop
        vertex 35.05 -17.349998 0
        vertex 35.05 -18.55 -3.1999998
        vertex 35.05 -17.349998 -3.1999998
    endloop
endfacet
facet normal 0 0.99999994 0
    outer loop
        vertex 35.05 -17.349998 0
        vertex 35.05 -17.349998 -3.1999998
        vertex -35.05 -17.349998 0
    endloop
endfacet
facet normal 0 1 0
    outer loop
        vertex -35.05 -17.349998 0
        vertex 35.05 -17.349998 -3.1999998
        vertex 30.66875 -17.349998 -3.1999998
    endloop
endfacet
facet normal 0 0.99999994 0
    outer loop
        vertex -35.05 -17.349998 0
        vertex 0 -17.349998 -3.1999998
        vertex -17.525 -17.349998 -3.1999998
    endloop
endfacet
facet normal 0 1 0
    outer loop
        vertex -35.05 -17.349998 0
        vertex 17.525 -17.349998 -3.1999998
        vertex 0 -17.349998 -3.1999998
    endloop
endfacet
facet normal 0 1 0
    outer loop
        vertex -35.05 -17.349998 0
        vertex 26.2875 -17.349998 -3.1999998
        vertex 24.096874 -17.349998 -3.1999998
    endloop
endfacet
facet normal 0 1 0
    outer loop
        vertex -35.05 -17.349998 0
        vertex 30.66875 -17.349998 -3.1999998
        vertex 28.478125 -17.349998 -3.1999998
    endloop
endfacet
facet normal 0 1 0
    outer loop
        vertex -35.05 -17.349998 0
        vertex 28.478125 -17.349998 -3.1999998
        vertex 26.2875 -17.349998 -3.1999998
    endloop
endfacet
facet normal 0 1 0
    outer loop
        vertex -35.05 -17.349998 0
        vertex 21.90625 -17.349998 -3.1999998
        vertex 19.715626 -17.349998 -3.1999998
    endloop
endfacet
facet normal 0 1 0
    outer loop
        vertex -35.05 -17.349998 0
        vertex 19.715626 -17.349998 -3.1999998
        vertex 17.525 -17.349998 -3.1999998
    endloop
endfacet
facet normal 0 1 0
    outer loop
        vertex -35.05 -17.349998 0
        vertex -17.525 -17.349998 -3.1999998
        vertex -19.715626 -17.349998 -3.1999998
    endloop
endfacet
facet normal 0 1 0
    outer loop
        vertex -35.05 -17.349998 0
        vertex -26.2875 -17.349998 -3.1999998
        vertex -28.478125 -17.349998 -3.1999998
    endloop
endfacet
facet normal 0 1 0
    outer loop
        vertex -35.05 -17.349998 0
        vertex -21.90625 -17.349998 -3.1999998
        vertex -24.096874 -17.349998 -3.1999998
    endloop
endfacet
facet normal 0 1 0
    outer loop
        vertex -35.05 -17.349998 0
        vertex -19.715626 -17.349998 -3.1999998
        vertex -21.90625 -17.349998 -3.1999998
    endloop
endfacet
facet normal 0 1 0
    outer loop
        vertex -35.05 -17.349998 0
        vertex -30.66875 -17.349998 -3.1999998
        vertex -35.05 -17.349998 -3.1999998
    endloop
endfacet
facet normal 0 1 0
    outer loop
        vertex -35.05 -17.349998 0
        vertex -28.478125 -17.349998 -3.1999998
        vertex -30.66875 -17.349998 -3.1999998
    endloop
endfacet
facet normal 0 1 0
    outer loop
        vertex -35.05 -17.349998 0
        vertex 24.096874 -17.349998 -3.1999998
        vertex 21.90625 -17.349998 -3.1999998
    endloop
endfacet
facet normal 0 1 0
    outer loop
        vertex -35.05 -17.349998 0
        vertex -24.096874 -17.349998 -3.1999998
        vertex -26.2875 -17.349998 -3.1999998
    endloop
endfacet
facet normal -1 -0 -0
    outer loop
        vertex -35.05 -17.349998 0
        vertex -35.05 -17.349998 -3.1999998
        vertex -35.05 -18.55 0
    endloop
endfacet
facet normal -1 0 0
    outer loop
        vertex -35.05 -18.55 0
        vertex -35.05 -17.349998 -3.1999998
        vertex -35.05 -18.55 -3.1999998
    endloop
endfacet
facet normal 0 -0.99999994 0
    outer loop
        vertex -35.05 -18.55 0
        vertex -35.05 -18.55 -3.1999998
        vertex 35.05 -18.55 0
    endloop
endfacet
facet normal 0 -1 0
    outer loop
        vertex 35.05 -18.55 0
        vertex -35.05 -18.55 -3.1999998
        vertex -30.66875 -18.55 -3.1999998
    endloop
endfacet
facet normal 0 -0.99999994 0
    outer loop
        vertex 35.05 -18.55 0
        vertex 0 -18.55 -3.1999998
        vertex 17.525 -18.55 -3.1999998
    endloop
endfacet
facet normal 0 -1 0
    outer loop
        vertex 35.05 -18.55 0
        vertex -17.525 -18.55 -3.1999998
        vertex 0 -18.55 -3.1999998
    endloop
endfacet
facet normal 0 -1 0
    outer loop
        vertex 35.05 -18.55 0
        vertex -26.2875 -18.55 -3.1999998
        vertex -24.096874 -18.55 -3.1999998
    endloop
endfacet
facet normal 0 -1 0
    outer loop
        vertex 35.05 -18.55 0
        vertex -30.66875 -18.55 -3.1999998
        vertex -28.478125 -18.55 -3.1999998
    endloop
endfacet
facet normal 0 -1 0
    outer loop
        vertex 35.05 -18.55 0
        vertex -28.478125 -18.55 -3.1999998
        vertex -26.2875 -18.55 -3.1999998
    endloop
endfacet
facet normal 0 -1 0
    outer loop
        vertex 35.05 -18.55 0
        vertex -21.90625 -18.55 -3.1999998
        vertex -19.715626 -18.55 -3.1999998
    endloop
endfacet
facet normal 0 -1 0
    outer loop
        vertex 35.05 -18.55 0
        vertex -19.715626 -18.55 -3.1999998
        vertex -17.525 -18.55 -3.1999998
    endloop
endfacet
facet normal 0 -1 0
    outer loop
        vertex 35.05 -18.55 0
        vertex 17.525 -18.55 -3.1999998
        vertex 19.715626 -18.55 -3.1999998
    endloop
endfacet
facet normal 0 -1 0
    outer loop
        vertex 35.05 -18.55 0
        vertex 26.2875 -18.55 -3.1999998
        vertex 28.478125 -18.55 -3.1999998
    endloop
endfacet
facet normal 0 -1 0
    outer loop
        vertex 35.05 -18.55 0
        vertex 21.90625 -18.55 -3.1999998
        vertex 24.096874 -18.55 -3.1999998
    endloop
endfacet
facet normal 0 -1 0
    outer loop
        vertex 35.05 -18.55 0
        vertex 19.715626 -18.55 -3.1999998
        vertex 21.90625 -18.55 -3.1999998
    endloop
endfacet
facet normal 0 -1 -0
    outer loop
        vertex 35.05 -18.55 0
        vertex 30.66875 -18.55 -3.1999998
        vertex 35.05 -18.55 -3.1999998
    endloop
endfacet
facet normal 0 -1 0
    outer loop
        vertex 35.05 -18.55 0
        vertex 28.478125 -18.55 -3.1999998
        vertex 30.66875 -18.55 -3.1999998
    endloop
endfacet
facet normal 0 -1 0
    outer loop
        vertex 35.05 -18.55 0
        vertex 24.096874 -18.55 -3.1999998
        vertex 26.2875 -18.55 -3.1999998
    endloop
endfacet
facet normal 0 -1 0
    outer loop
        vertex 35.05 -18.55 0
        vertex -24.096874 -18.55 -3.1999998
        vertex -21.90625 -18.55 -3.1999998
    endloop
endfacet
facet normal 0 0 -1
    outer loop
        vertex -24.5 -18.475 -3.1999998
        vertex -24 -18.475 -3.1999998
        vertex -24.096874 -18.55 -3.1999998
    endloop
endfacet
facet normal 0 0 -1
    outer loop
        vertex -25 -18.475 -3.1999998
        vertex -24.5 -18.475 -3.1999998
        vertex -24.096874 -18.55 -3.1999998
    endloop
endfacet
facet normal -0 0 -1
    outer loop
        vertex -25 -18.475 -3.1999998
        vertex -26.2875 -18.55 -3.1999998
        vertex -26 -18.475 -3.1999998
    endloop
endfacet
facet normal 0 0 -1
    outer loop
        vertex -25 -17.425001 -3.1999998
        vertex -26 -17.425001 -3.1999998
        vertex -26.2875 -17.349998 -3.1999998
    endloop
endfacet
facet normal 0 0 -1
    outer loop
        vertex 25 -18.475 -3.1999998
        vertex 26 -18.475 -3.1999998
        vertex 26.2875 -18.55 -3.1999998
    endloop
endfacet
facet normal -0 0 -1
    outer loop
        vertex 24.5 -18.475 -3.1999998
        vertex 24.096874 -18.55 -3.1999998
        vertex 24 -18.475 -3.1999998
    endloop
endfacet
facet normal 0 0 -1
    outer loop
        vertex 24.5 -17.425001 -3.1999998
        vertex 24 -17.425001 -3.1999998
        vertex 24.096874 -17.349998 -3.1999998
    endloop
endfacet
facet normal 0 0 -1
    outer loop
        vertex 25 -17.425001 -3.1999998
        vertex 24.5 -17.425001 -3.1999998
        vertex 24.096874 -17.349998 -3.1999998
    endloop
endfacet
facet normal 0 0 -1
    outer loop
        vertex 26.5 -17.425001 -3.1999998
        vertex 26 -17.425001 -3.1999998
        vertex 26.2875 -17.349998 -3.1999998
    endloop
endfacet
facet normal 0 0 -1
    outer loop
        vertex 27 -17.425001 -3.1999998
        vertex 26.5 -17.425001 -3.1999998
        vertex 26.2875 -17.349998 -3.1999998
    endloop
endfacet
facet normal 0 0 -1
    outer loop
        vertex 26 -17.425001 -3.1999998
        vertex 25 -17.425001 -3.1999998
        vertex 26.2875 -17.349998 -3.1999998
    endloop
endfacet
facet normal 0 0 -1
    outer loop
        vertex 22 -17.425001 -3.1999998
        vertex 21.5 -17.425001 -3.1999998
        vertex 21.90625 -17.349998 -3.1999998
    endloop
endfacet
facet normal -0 0 -1
    outer loop
        vertex 25 -18.475 -3.1999998
        vertex 24.096874 -18.55 -3.1999998
        vertex 24.5 -18.475 -3.1999998
    endloop
endfacet
facet normal 0 0 -1
    outer loop
        vertex 24 -17.425001 -3.1999998
        vertex 22 -17.425001 -3.1999998
        vertex 21.90625 -17.349998 -3.1999998
    endloop
endfacet
facet normal 0 0 -1
    outer loop
        vertex 21.5 -17.425001 -3.1999998
        vertex 21 -17.425001 -3.1999998
        vertex 21.90625 -17.349998 -3.1999998
    endloop
endfacet
facet normal 0 0 -1
    outer loop
        vertex 21.5 -18.475 -3.1999998
        vertex 22 -18.475 -3.1999998
        vertex 21.90625 -18.55 -3.1999998
    endloop
endfacet
facet normal 0 0 -1
    outer loop
        vertex 21 -17.425001 -3.1999998
        vertex 19.715626 -17.349998 -3.1999998
        vertex 21.90625 -17.349998 -3.1999998
    endloop
endfacet
facet normal 0 0 -1
    outer loop
        vertex 21 -18.475 -3.1999998
        vertex 21.5 -18.475 -3.1999998
        vertex 21.90625 -18.55 -3.1999998
    endloop
endfacet
facet normal -0 0 -1
    outer loop
        vertex 27 -18.475 -3.1999998
        vertex 26.2875 -18.55 -3.1999998
        vertex 26.5 -18.475 -3.1999998
    endloop
endfacet
facet normal 0 0 -1
    outer loop
        vertex 25 -17.425001 -3.1999998
        vertex 24.096874 -17.349998 -3.1999998
        vertex 26.2875 -17.349998 -3.1999998
    endloop
endfacet
facet normal 0 0 -1
    outer loop
        vertex 26 -18.475 -3.1999998
        vertex 26.5 -18.475 -3.1999998
        vertex 26.2875 -18.55 -3.1999998
    endloop
endfacet
facet normal -0 0 -1
    outer loop
        vertex 24 -18.475 -3.1999998
        vertex 21.90625 -18.55 -3.1999998
        vertex 22 -18.475 -3.1999998
    endloop
endfacet
facet normal 0 -0 -1
    outer loop
        vertex 25 -18.475 -3.1999998
        vertex 26.2875 -18.55 -3.1999998
        vertex 24.096874 -18.55 -3.1999998
    endloop
endfacet
facet normal 0 0 -1
    outer loop
        vertex -21.5 -17.425001 -3.1999998
        vertex -22 -17.425001 -3.1999998
        vertex -21.90625 -17.349998 -3.1999998
    endloop
endfacet
facet normal 0 0 -1
    outer loop
        vertex -21 -17.425001 -3.1999998
        vertex -21.5 -17.425001 -3.1999998
        vertex -21.90625 -17.349998 -3.1999998
    endloop
endfacet
facet normal 0 0 -1
    outer loop
        vertex -24.096874 -17.349998 -3.1999998
        vertex -24.5 -17.425001 -3.1999998
        vertex -25 -17.425001 -3.1999998
    endloop
endfacet
facet normal 0 0 -1
    outer loop
        vertex -26 -17.425001 -3.1999998
        vertex -26.5 -17.425001 -3.1999998
        vertex -26.2875 -17.349998 -3.1999998
    endloop
endfacet
facet normal 0 0 -1
    outer loop
        vertex -25 -17.425001 -3.1999998
        vertex -26.2875 -17.349998 -3.1999998
        vertex -24.096874 -17.349998 -3.1999998
    endloop
endfacet
facet normal 0 0 -1
    outer loop
        vertex -26.5 -17.425001 -3.1999998
        vertex -27 -17.425001 -3.1999998
        vertex -26.2875 -17.349998 -3.1999998
    endloop
endfacet
facet normal 0 0 -1
    outer loop
        vertex -26.5 -18.475 -3.1999998
        vertex -26 -18.475 -3.1999998
        vertex -26.2875 -18.55 -3.1999998
    endloop
endfacet
facet normal 0 0 -1
    outer loop
        vertex -27 -17.425001 -3.1999998
        vertex -28.478125 -17.349998 -3.1999998
        vertex -26.2875 -17.349998 -3.1999998
    endloop
endfacet
facet normal 0 0 -1
    outer loop
        vertex -27 -18.475 -3.1999998
        vertex -26.5 -18.475 -3.1999998
        vertex -26.2875 -18.55 -3.1999998
    endloop
endfacet
facet normal 0 -0 -1
    outer loop
        vertex -24.096874 -17.349998 -3.1999998
        vertex -24 -17.425001 -3.1999998
        vertex -24.5 -17.425001 -3.1999998
    endloop
endfacet
facet normal -0 0 -1
    outer loop
        vertex -21 -18.475 -3.1999998
        vertex -21.90625 -18.55 -3.1999998
        vertex -21.5 -18.475 -3.1999998
    endloop
endfacet
facet normal 0 0 -1
    outer loop
        vertex -22 -17.425001 -3.1999998
        vertex -24 -17.425001 -3.1999998
        vertex -21.90625 -17.349998 -3.1999998
    endloop
endfacet
facet normal 0 0 -1
    outer loop
        vertex -22 -18.475 -3.1999998
        vertex -21.5 -18.475 -3.1999998
        vertex -21.90625 -18.55 -3.1999998
    endloop
endfacet
facet normal 0 0 -1
    outer loop
        vertex -24 -18.475 -3.1999998
        vertex -22 -18.475 -3.1999998
        vertex -21.90625 -18.55 -3.1999998
    endloop
endfacet
facet normal 0 0 -1
    outer loop
        vertex 28.478125 -18.55 -3.1999998
        vertex 27 -18.475 -3.1999998
        vertex 28 -18.475 -3.1999998
    endloop
endfacet
facet normal 0 0 -1
    outer loop
        vertex 30.66875 -18.55 -3.1999998
        vertex 28.478125 -18.55 -3.1999998
        vertex 28.478125 -17.349998 -3.1999998
    endloop
endfacet
facet normal 0 -0 -1
    outer loop
        vertex 24 -18.475 -3.1999998
        vertex 24.096874 -18.55 -3.1999998
        vertex 21.90625 -18.55 -3.1999998
    endloop
endfacet
facet normal 0 0 -1
    outer loop
        vertex 21.90625 -18.55 -3.1999998
        vertex 19.715626 -18.55 -3.1999998
        vertex 21 -18.475 -3.1999998
    endloop
endfacet
facet normal 0 0 -0.99999994
    outer loop
        vertex 19.715626 -17.349998 -3.1999998
        vertex 20 -18.475 -3.1999998
        vertex 19.715626 -18.55 -3.1999998
    endloop
endfacet
facet normal 0 0 -1
    outer loop
        vertex -19.715626 -18.55 -3.1999998
        vertex -21 -18.475 -3.1999998
        vertex -20 -18.475 -3.1999998
    endloop
endfacet
facet normal 0 0 -1
    outer loop
        vertex -21.90625 -18.55 -3.1999998
        vertex -24.096874 -18.55 -3.1999998
        vertex -24 -18.475 -3.1999998
    endloop
endfacet
facet normal 0 0 -1
    outer loop
        vertex -28.478125 -17.349998 -3.1999998
        vertex -28 -18.475 -3.1999998
        vertex -28.478125 -18.55 -3.1999998
    endloop
endfacet
facet normal 0 -0 -1
    outer loop
        vertex -21 -18.475 -3.1999998
        vertex -19.715626 -18.55 -3.1999998
        vertex -21.90625 -18.55 -3.1999998
    endloop
endfacet
facet normal 0 0 -1
    outer loop
        vertex -26.2875 -18.55 -3.1999998
        vertex -28.478125 -18.55 -3.1999998
        vertex -27 -18.475 -3.1999998
    endloop
endfacet
facet normal 0 0 -1
    outer loop
        vertex -17.525 -18.55 -3.1999998
        vertex -19.715626 -18.55 -3.1999998
        vertex -19.715626 -17.349998 -3.1999998
    endloop
endfacet
facet normal 0 0 -1
    outer loop
        vertex 0 -18.55 -3.1999998
        vertex -17.525 -17.349998 -3.1999998
        vertex 0 -17.349998 -3.1999998
    endloop
endfacet
facet normal 0 0 -1
    outer loop
        vertex -28.478125 -17.349998 -3.1999998
        vertex -27 -17.425001 -3.1999998
        vertex -28 -17.425001 -3.1999998
    endloop
endfacet
facet normal 0 0 -1
    outer loop
        vertex -30.66875 -17.349998 -3.1999998
        vertex -28.478125 -17.349998 -3.1999998
        vertex -30.66875 -18.55 -3.1999998
    endloop
endfacet
facet normal 0 0 -1
    outer loop
        vertex -24 -17.425001 -3.1999998
        vertex -24.096874 -17.349998 -3.1999998
        vertex -21.90625 -17.349998 -3.1999998
    endloop
endfacet
facet normal 0 0 -1
    outer loop
        vertex -21.90625 -17.349998 -3.1999998
        vertex -19.715626 -17.349998 -3.1999998
        vertex -21 -17.425001 -3.1999998
    endloop
endfacet
facet normal -0 0 -1
    outer loop
        vertex -27 -18.475 -3.1999998
        vertex -28.478125 -18.55 -3.1999998
        vertex -28 -18.475 -3.1999998
    endloop
endfacet
facet normal 0 0 -1
    outer loop
        vertex -20 -18.475 -3.1999998
        vertex -20 -17.425001 -3.1999998
        vertex -19.715626 -17.349998 -3.1999998
    endloop
endfacet
facet normal 0 0 -1
    outer loop
        vertex 19.715626 -17.349998 -3.1999998
        vertex 21 -17.425001 -3.1999998
        vertex 20 -17.425001 -3.1999998
    endloop
endfacet
facet normal 0 0 -1
    outer loop
        vertex 21.90625 -17.349998 -3.1999998
        vertex 24.096874 -17.349998 -3.1999998
        vertex 24 -17.425001 -3.1999998
    endloop
endfacet
facet normal 0 0 -1
    outer loop
        vertex 28 -18.475 -3.1999998
        vertex 28 -17.425001 -3.1999998
        vertex 28.478125 -17.349998 -3.1999998
    endloop
endfacet
facet normal 0 0 -1
    outer loop
        vertex 26.2875 -17.349998 -3.1999998
        vertex 28.478125 -17.349998 -3.1999998
        vertex 27 -17.425001 -3.1999998
    endloop
endfacet
facet normal 0 0 -1
    outer loop
        vertex 17.525 -17.349998 -3.1999998
        vertex 19.715626 -17.349998 -3.1999998
        vertex 17.525 -18.55 -3.1999998
    endloop
endfacet
facet normal 0 0 -1
    outer loop
        vertex 0 -17.349998 -3.1999998
        vertex 17.525 -17.349998 -3.1999998
        vertex 0 -18.55 -3.1999998
    endloop
endfacet
facet normal -0 -0 -1
    outer loop
        vertex 20 -17.425001 -3.1999998
        vertex 20 -18.475 -3.1999998
        vertex 19.715626 -17.349998 -3.1999998
    endloop
endfacet
facet normal 0 0 -1
    outer loop
        vertex -19.715626 -17.349998 -3.1999998
        vertex -17.525 -17.349998 -3.1999998
        vertex -17.525 -18.55 -3.1999998
    endloop
endfacet
facet normal -0 0 -1
    outer loop
        vertex 21 -18.475 -3.1999998
        vertex 19.715626 -18.55 -3.1999998
        vertex 20 -18.475 -3.1999998
    endloop
endfacet
facet normal 0 0 -1
    outer loop
        vertex 17.525 -18.55 -3.1999998
        vertex 0 -18.55 -3.1999998
        vertex 17.525 -17.349998 -3.1999998
    endloop
endfacet
facet normal 0 0 -1
    outer loop
        vertex 28.478125 -18.55 -3.1999998
        vertex 26.2875 -18.55 -3.1999998
        vertex 27 -18.475 -3.1999998
    endloop
endfacet
facet normal 0 0 -1
    outer loop
        vertex 27 -17.425001 -3.1999998
        vertex 28.478125 -17.349998 -3.1999998
        vertex 28 -17.425001 -3.1999998
    endloop
endfacet
facet normal 0 0 -1
    outer loop
        vertex 30.66875 -17.349998 -3.1999998
        vertex 35.05 -17.349998 -3.1999998
        vertex 35.05 -18.55 -3.1999998
    endloop
endfacet
facet normal 0 0 -1
    outer loop
        vertex -17.525 -18.55 -3.1999998
        vertex -17.525 -17.349998 -3.1999998
        vertex 0 -18.55 -3.1999998
    endloop
endfacet
facet normal 0 0 -1
    outer loop
        vertex -24.096874 -18.55 -3.1999998
        vertex -26.2875 -18.55 -3.1999998
        vertex -25 -18.475 -3.1999998
    endloop
endfacet
facet normal 0 0 -1
    outer loop
        vertex -35.05 -17.349998 -3.1999998
        vertex -30.66875 -17.349998 -3.1999998
        vertex -35.05 -18.55 -3.1999998
    endloop
endfacet
facet normal 0 0 -1
    outer loop
        vertex -19.715626 -17.349998 -3.1999998
        vertex -20 -17.425001 -3.1999998
        vertex -21 -17.425001 -3.1999998
    endloop
endfacet
facet normal -0 -0 -1
    outer loop
        vertex 30.66875 -17.349998 -3.1999998
        vertex 30.66875 -18.55 -3.1999998
        vertex 28.478125 -17.349998 -3.1999998
    endloop
endfacet
facet normal 0 0 -1
    outer loop
        vertex 19.715626 -18.55 -3.1999998
        vertex 17.525 -18.55 -3.1999998
        vertex 19.715626 -17.349998 -3.1999998
    endloop
endfacet
facet normal 0 0 -1
    outer loop
        vertex 28.478125 -18.55 -3.1999998
        vertex 28 -18.475 -3.1999998
        vertex 28.478125 -17.349998 -3.1999998
    endloop
endfacet
facet normal 0 0 -1
    outer loop
        vertex -30.66875 -18.55 -3.1999998
        vertex -35.05 -18.55 -3.1999998
        vertex -30.66875 -17.349998 -3.1999998
    endloop
endfacet
facet normal 0 0 -1
    outer loop
        vertex -28.478125 -18.55 -3.1999998
        vertex -30.66875 -18.55 -3.1999998
        vertex -28.478125 -17.349998 -3.1999998
    endloop
endfacet
facet normal 0 0 -1
    outer loop
        vertex -28 -18.475 -3.1999998
        vertex -28.478125 -17.349998 -3.1999998
        vertex -28 -17.425001 -3.1999998
    endloop
endfacet
facet normal 0 -0 -0.99999994
    outer loop
        vertex -19.715626 -17.349998 -3.1999998
        vertex -19.715626 -18.55 -3.1999998
        vertex -20 -18.475 -3.1999998
    endloop
endfacet
facet normal 0 0 -1
    outer loop
        vertex 35.05 -18.55 -3.1999998
        vertex 30.66875 -18.55 -3.1999998
        vertex 30.66875 -17.349998 -3.1999998
    endloop
endfacet
facet normal 1 -0 0
    outer loop
        vertex 35.05 17.349998 0
        vertex 35.05 17.349998 -3.1999998
        vertex 35.05 18.55 0
    endloop
endfacet
facet normal 1 0 0
    outer loop
        vertex 35.05 18.55 0
        vertex 35.05 17.349998 -3.1999998
        vertex 35.05 18.55 -3.1999998
    endloop
endfacet
facet normal 0 0.99999994 0
    outer loop
        vertex 35.05 18.55 0
        vertex 35.05 18.55 -3.1999998
        vertex -35.05 18.55 0
    endloop
endfacet
facet normal 0 1 0
    outer loop
        vertex -35.05 18.55 0
        vertex 35.05 18.55 -3.1999998
        vertex 30.66875 18.55 -3.1999998
    endloop
endfacet
facet normal 0 0.99999994 0
    outer loop
        vertex -35.05 18.55 0
        vertex 0 18.55 -3.1999998
        vertex -17.525 18.55 -3.1999998
    endloop
endfacet
facet normal 0 1 0
    outer loop
        vertex -35.05 18.55 0
        vertex 17.525 18.55 -3.1999998
        vertex 0 18.55 -3.1999998
    endloop
endfacet
facet normal 0 1 0
    outer loop
        vertex -35.05 18.55 0
        vertex 26.2875 18.55 -3.1999998
        vertex 24.096874 18.55 -3.1999998
    endloop
endfacet
facet normal 0 1 0
    outer loop
        vertex -35.05 18.55 0
        vertex 30.66875 18.55 -3.1999998
        vertex 28.478125 18.55 -3.1999998
    endloop
endfacet
facet normal 0 1 0
    outer loop
        vertex -35.05 18.55 0
        vertex 28.478125 18.55 -3.1999998
        vertex 26.2875 18.55 -3.1999998
    endloop
endfacet
facet normal 0 1 0
    outer loop
        vertex -35.05 18.55 0
        vertex 21.90625 18.55 -3.1999998
        vertex 19.715626 18.55 -3.1999998
    endloop
endfacet
facet normal 0 1 0
    outer loop
        vertex -35.05 18.55 0
        vertex 19.715626 18.55 -3.1999998
        vertex 17.525 18.55 -3.1999998
    endloop
endfacet
facet normal 0 1 0
    outer loop
        vertex -35.05 18.55 0
        vertex -17.525 18.55 -3.1999998
        vertex -19.715626 18.55 -3.1999998
    endloop
endfacet
facet normal 0 1 0
    outer loop
        vertex -35.05 18.55 0
        vertex -26.2875 18.55 -3.1999998
        vertex -28.478125 18.55 -3.1999998
    endloop
endfacet
facet normal 0 1 0
    outer loop
        vertex -35.05 18.55 0
        vertex -21.90625 18.55 -3.1999998
        vertex -24.096874 18.55 -3.1999998
    endloop
endfacet
facet normal 0 1 0
    outer loop
        vertex -35.05 18.55 0
        vertex -19.715626 18.55 -3.1999998
        vertex -21.90625 18.55 -3.1999998
    endloop
endfacet
facet normal 0 1 0
    outer loop
        vertex -35.05 18.55 0
        vertex -30.66875 18.55 -3.1999998
        vertex -35.05 18.55 -3.1999998
    endloop
endfacet
facet normal 0 1 0
    outer loop
        vertex -35.05 18.55 0
        vertex -28.478125 18.55 -3.1999998
        vertex -30.66875 18.55 -3.1999998
    endloop
endfacet
facet normal 0 1 0
    outer loop
        vertex -35.05 18.55 0
        vertex 24.096874 18.55 -3.1999998
        vertex 21.90625 18.55 -3.1999998
    endloop
endfacet
facet normal 0 1 0
    outer loop
        vertex -35.05 18.55 0
        vertex -24.096874 18.55 -3.1999998
        vertex -26.2875 18.55 -3.1999998
    endloop
endfacet
facet normal -1 -0 -0
    outer loop
        vertex -35.05 18.55 0
        vertex -35.05 18.55 -3.1999998
        vertex -35.05 17.349998 0
    endloop
endfacet
facet normal -1 0 0
    outer loop
        vertex -35.05 17.349998 0
        vertex -35.05 18.55 -3.1999998
        vertex -35.05 17.349998 -3.1999998
    endloop
endfacet
facet normal 0 -0.99999994 0
    outer loop
        vertex -35.05 17.349998 0
        vertex -35.05 17.349998 -3.1999998
        vertex 35.05 17.349998 0
    endloop
endfacet
facet normal 0 -1 0
    outer loop
        vertex 35.05 17.349998 0
        vertex -35.05 17.349998 -3.1999998
        vertex -30.66875 17.349998 -3.1999998
    endloop
endfacet
facet normal 0 -0.99999994 0
    outer loop
        vertex 35.05 17.349998 0
        vertex 0 17.349998 -3.1999998
        vertex 17.525 17.349998 -3.1999998
    endloop
endfacet
facet normal 0 -1 0
    outer loop
        vertex 35.05 17.349998 0
        vertex -17.525 17.349998 -3.1999998
        vertex 0 17.349998 -3.1999998
    endloop
endfacet
facet normal 0 -1 0
    outer loop
        vertex 35.05 17.349998 0
        vertex -26.2875 17.349998 -3.1999998
        vertex -24.096874 17.349998 -3.1999998
    endloop
endfacet
facet normal 0 -1 0
    outer loop
        vertex 35.05 17.349998 0
        vertex -30.66875 17.349998 -3.1999998
        vertex -28.478125 17.349998 -3.1999998
    endloop
endfacet
facet normal 0 -1 0
    outer loop
        vertex 35.05 17.349998 0
        vertex -28.478125 17.349998 -3.1999998
        vertex -26.2875 17.349998 -3.1999998
    endloop
endfacet
facet normal 0 -1 0
    outer loop
        vertex 35.05 17.349998 0
        vertex -21.90625 17.349998 -3.1999998
        vertex -19.715626 17.349998 -3.1999998
    endloop
endfacet
facet normal 0 -1 0
    outer loop
        vertex 35.05 17.349998 0
        vertex -19.715626 17.349998 -3.1999998
        vertex -17.525 17.349998 -3.1999998
    endloop
endfacet
facet normal 0 -1 0
    outer loop
        vertex 35.05 17.349998 0
        vertex 17.525 17.349998 -3.1999998
        vertex 19.715626 17.349998 -3.1999998
    endloop
endfacet
facet normal 0 -1 0
    outer loop
        vertex 35.05 17.349998 0
        vertex 26.2875 17.349998 -3.1999998
        vertex 28.478125 17.349998 -3.1999998
    endloop
endfacet
facet normal 0 -1 0
    outer loop
        vertex 35.05 17.349998 0
        vertex 21.90625 17.349998 -3.1999998
        vertex 24.096874 17.349998 -3.1999998
    endloop
endfacet
facet normal 0 -1 0
    outer loop
        vertex 35.05 17.349998 0
        vertex 19.715626 17.349998 -3.1999998
        vertex 21.90625 17.349998 -3.1999998
    endloop
endfacet
facet normal 0 -1 -0
    outer loop
        vertex 35.05 17.349998 0
        vertex 30.66875 17.349998 -3.1999998
        vertex 35.05 17.349998 -3.1999998
    endloop
endfacet
facet normal 0 -1 0
    outer loop
        vertex 35.05 17.349998 0
        vertex 28.478125 17.349998 -3.1999998
        vertex 30.66875 17.349998 -3.1999998
    endloop
endfacet
facet normal 0 -1 0
    outer loop
        vertex 35.05 17.349998 0
        vertex 24.096874 17.349998 -3.1999998
        vertex 26.2875 17.349998 -3.1999998
    endloop
endfacet
facet normal 0 -1 0
    outer loop
        vertex 35.05 17.349998 0
        vertex -24.096874 17.349998 -3.1999998
        vertex -21.90625 17.349998 -3.1999998
    endloop
endfacet
facet normal 0 0 -1
    outer loop
        vertex -24.5 17.425001 -3.1999998
        vertex -24 17.425001 -3.1999998
        vertex -24.096874 17.349998 -3.1999998
    endloop
endfacet
facet normal 0 0 -1
    outer loop
        vertex -25 17.425001 -3.1999998
        vertex -24.5 17.425001 -3.1999998
        vertex -24.096874 17.349998 -3.1999998
    endloop
endfacet
facet normal -0 0 -1
    outer loop
        vertex -25 17.425001 -3.1999998
        vertex -26.2875 17.349998 -3.1999998
        vertex -26 17.425001 -3.1999998
    endloop
endfacet
facet normal 0 0 -1
    outer loop
        vertex -25 18.475 -3.1999998
        vertex -26 18.475 -3.1999998
        vertex -26.2875 18.55 -3.1999998
    endloop
endfacet
facet normal 0 0 -1
    outer loop
        vertex 25 17.425001 -3.1999998
        vertex 26 17.425001 -3.1999998
        vertex 26.2875 17.349998 -3.1999998
    endloop
endfacet
facet normal -0 0 -1
    outer loop
        vertex 24.5 17.425001 -3.1999998
        vertex 24.096874 17.349998 -3.1999998
        vertex 24 17.425001 -3.1999998
    endloop
endfacet
facet normal 0 0 -1
    outer loop
        vertex 24.5 18.475 -3.1999998
        vertex 24 18.475 -3.1999998
        vertex 24.096874 18.55 -3.1999998
    endloop
endfacet
facet normal 0 0 -1
    outer loop
        vertex 25 18.475 -3.1999998
        vertex 24.5 18.475 -3.1999998
        vertex 24.096874 18.55 -3.1999998
    endloop
endfacet
facet normal 0 0 -1
    outer loop
        vertex 26.5 18.475 -3.1999998
        vertex 26 18.475 -3.1999998
        vertex 26.2875 18.55 -3.1999998
    endloop
endfacet
facet normal 0 0 -1
    outer loop
        vertex 27 18.475 -3.1999998
        vertex 26.5 18.475 -3.1999998
        vertex 26.2875 18.55 -3.1999998
    endloop
endfacet
facet normal 0 0 -1
    outer loop
        vertex 26 18.475 -3.1999998
        vertex 25 18.475 -3.1999998
        vertex 26.2875 18.55 -3.1999998
    endloop
endfacet
facet normal 0 0 -1
    outer loop
        vertex 22 18.475 -3.1999998
        vertex 21.5 18.475 -3.1999998
        vertex 21.90625 18.55 -3.1999998
    endloop
endfacet
facet normal -0 0 -1
    outer loop
        vertex 25 17.425001 -3.1999998
        vertex 24.096874 17.349998 -3.1999998
        vertex 24.5 17.425001 -3.1999998
    endloop
endfacet
facet normal 0 0 -1
    outer loop
        vertex 24 18.475 -3.1999998
        vertex 22 18.475 -3.1999998
        vertex 21.90625 18.55 -3.1999998
    endloop
endfacet
facet normal 0 0 -1
    outer loop
        vertex 21.5 18.475 -3.1999998
        vertex 21 18.475 -3.1999998
        vertex 21.90625 18.55 -3.1999998
    endloop
endfacet
facet normal 0 0 -1
    outer loop
        vertex 21.5 17.425001 -3.1999998
        vertex 22 17.425001 -3.1999998
        vertex 21.90625 17.349998 -3.1999998
    endloop
endfacet
facet normal 0 0 -1
    outer loop
        vertex 21 18.475 -3.1999998
        vertex 19.715626 18.55 -3.1999998
        vertex 21.90625 18.55 -3.1999998
    endloop
endfacet
facet normal 0 0 -1
    outer loop
        vertex 21 17.425001 -3.1999998
        vertex 21.5 17.425001 -3.1999998
        vertex 21.90625 17.349998 -3.1999998
    endloop
endfacet
facet normal -0 0 -1
    outer loop
        vertex 27 17.425001 -3.1999998
        vertex 26.2875 17.349998 -3.1999998
        vertex 26.5 17.425001 -3.1999998
    endloop
endfacet
facet normal 0 0 -1
    outer loop
        vertex 25 18.475 -3.1999998
        vertex 24.096874 18.55 -3.1999998
        vertex 26.2875 18.55 -3.1999998
    endloop
endfacet
facet normal 0 0 -1
    outer loop
        vertex 26 17.425001 -3.1999998
        vertex 26.5 17.425001 -3.1999998
        vertex 26.2875 17.349998 -3.1999998
    endloop
endfacet
facet normal -0 0 -1
    outer loop
        vertex 24 17.425001 -3.1999998
        vertex 21.90625 17.349998 -3.1999998
        vertex 22 17.425001 -3.1999998
    endloop
endfacet
facet normal 0 -0 -1
    outer loop
        vertex 25 17.425001 -3.1999998
        vertex 26.2875 17.349998 -3.1999998
        vertex 24.096874 17.349998 -3.1999998
    endloop
endfacet
facet normal 0 0 -1
    outer loop
        vertex -21.5 18.475 -3.1999998
        vertex -22 18.475 -3.1999998
        vertex -21.90625 18.55 -3.1999998
    endloop
endfacet
facet normal 0 0 -1
    outer loop
        vertex -21 18.475 -3.1999998
        vertex -21.5 18.475 -3.1999998
        vertex -21.90625 18.55 -3.1999998
    endloop
endfacet
facet normal 0 0 -1
    outer loop
        vertex -24.096874 18.55 -3.1999998
        vertex -24.5 18.475 -3.1999998
        vertex -25 18.475 -3.1999998
    endloop
endfacet
facet normal 0 0 -1
    outer loop
        vertex -26 18.475 -3.1999998
        vertex -26.5 18.475 -3.1999998
        vertex -26.2875 18.55 -3.1999998
    endloop
endfacet
facet normal 0 0 -1
    outer loop
        vertex -25 18.475 -3.1999998
        vertex -26.2875 18.55 -3.1999998
        vertex -24.096874 18.55 -3.1999998
    endloop
endfacet
facet normal 0 0 -1
    outer loop
        vertex -26.5 18.475 -3.1999998
        vertex -27 18.475 -3.1999998
        vertex -26.2875 18.55 -3.1999998
    endloop
endfacet
facet normal 0 0 -1
    outer loop
        vertex -26.5 17.425001 -3.1999998
        vertex -26 17.425001 -3.1999998
        vertex -26.2875 17.349998 -3.1999998
    endloop
endfacet
facet normal 0 0 -1
    outer loop
        vertex -27 18.475 -3.1999998
        vertex -28.478125 18.55 -3.1999998
        vertex -26.2875 18.55 -3.1999998
    endloop
endfacet
facet normal 0 0 -1
    outer loop
        vertex -27 17.425001 -3.1999998
        vertex -26.5 17.425001 -3.1999998
        vertex -26.2875 17.349998 -3.1999998
    endloop
endfacet
facet normal 0 -0 -1
    outer loop
        vertex -24.096874 18.55 -3.1999998
        vertex -24 18.475 -3.1999998
        vertex -24.5 18.475 -3.1999998
    endloop
endfacet
facet normal -0 0 -1
    outer loop
        vertex -21 17.425001 -3.1999998
        vertex -21.90625 17.349998 -3.1999998
        vertex -21.5 17.425001 -3.1999998
    endloop
endfacet
facet normal 0 0 -1
    outer loop
        vertex -22 18.475 -3.1999998
        vertex -24 18.475 -3.1999998
        vertex -21.90625 18.55 -3.1999998
    endloop
endfacet
facet normal 0 0 -1
    outer loop
        vertex -22 17.425001 -3.1999998
        vertex -21.5 17.425001 -3.1999998
        vertex -21.90625 17.349998 -3.1999998
    endloop
endfacet
facet normal 0 0 -1
    outer loop
        vertex -24 17.425001 -3.1999998
        vertex -22 17.425001 -3.1999998
        vertex -21.90625 17.349998 -3.1999998
    endloop
endfacet
facet normal 0 0 -1
    outer loop
        vertex 28.478125 17.349998 -3.1999998
        vertex 27 17.425001 -3.1999998
        vertex 28 17.425001 -3.1999998
    endloop
endfacet
facet normal 0 0 -1
    outer loop
        vertex 30.66875 17.349998 -3.1999998
        vertex 28.478125 17.349998 -3.1999998
        vertex 28.478125 18.55 -3.1999998
    endloop
endfacet
facet normal 0 -0 -1
    outer loop
        vertex 24 17.425001 -3.1999998
        vertex 24.096874 17.349998 -3.1999998
        vertex 21.90625 17.349998 -3.1999998
    endloop
endfacet
facet normal 0 0 -1
    outer loop
        vertex 21.90625 17.349998 -3.1999998
        vertex 19.715626 17.349998 -3.1999998
        vertex 21 17.425001 -3.1999998
    endloop
endfacet
facet normal 0 0 -0.99999994
    outer loop
        vertex 19.715626 18.55 -3.1999998
        vertex 20 17.425001 -3.1999998
        vertex 19.715626 17.349998 -3.1999998
    endloop
endfacet
facet normal 0 0 -1
    outer loop
        vertex -19.715626 17.349998 -3.1999998
        vertex -21 17.425001 -3.1999998
        vertex -20 17.425001 -3.1999998
    endloop
endfacet
facet normal 0 0 -1
    outer loop
        vertex -21.90625 17.349998 -3.1999998
        vertex -24.096874 17.349998 -3.1999998
        vertex -24 17.425001 -3.1999998
    endloop
endfacet
facet normal 0 0 -1
    outer loop
        vertex -28.478125 18.55 -3.1999998
        vertex -28 17.425001 -3.1999998
        vertex -28.478125 17.349998 -3.1999998
    endloop
endfacet
facet normal 0 -0 -1
    outer loop
        vertex -21 17.425001 -3.1999998
        vertex -19.715626 17.349998 -3.1999998
        vertex -21.90625 17.349998 -3.1999998
    endloop
endfacet
facet normal 0 0 -1
    outer loop
        vertex -26.2875 17.349998 -3.1999998
        vertex -28.478125 17.349998 -3.1999998
        vertex -27 17.425001 -3.1999998
    endloop
endfacet
facet normal 0 0 -1
    outer loop
        vertex -17.525 17.349998 -3.1999998
        vertex -19.715626 17.349998 -3.1999998
        vertex -19.715626 18.55 -3.1999998
    endloop
endfacet
facet normal 0 0 -1
    outer loop
        vertex 0 17.349998 -3.1999998
        vertex -17.525 18.55 -3.1999998
        vertex 0 18.55 -3.1999998
    endloop
endfacet
facet normal 0 0 -1
    outer loop
        vertex -28.478125 18.55 -3.1999998
        vertex -27 18.475 -3.1999998
        vertex -28 18.475 -3.1999998
    endloop
endfacet
facet normal 0 0 -1
    outer loop
        vertex -30.66875 18.55 -3.1999998
        vertex -28.478125 18.55 -3.1999998
        vertex -30.66875 17.349998 -3.1999998
    endloop
endfacet
facet normal 0 0 -1
    outer loop
        vertex -24 18.475 -3.1999998
        vertex -24.096874 18.55 -3.1999998
        vertex -21.90625 18.55 -3.1999998
    endloop
endfacet
facet normal 0 0 -1
    outer loop
        vertex -21.90625 18.55 -3.1999998
        vertex -19.715626 18.55 -3.1999998
        vertex -21 18.475 -3.1999998
    endloop
endfacet
facet normal -0 0 -1
    outer loop
        vertex -27 17.425001 -3.1999998
        vertex -28.478125 17.349998 -3.1999998
        vertex -28 17.425001 -3.1999998
    endloop
endfacet
facet normal 0 0 -1
    outer loop
        vertex -20 17.425001 -3.1999998
        vertex -20 18.475 -3.1999998
        vertex -19.715626 18.55 -3.1999998
    endloop
endfacet
facet normal 0 0 -1
    outer loop
        vertex 19.715626 18.55 -3.1999998
        vertex 21 18.475 -3.1999998
        vertex 20 18.475 -3.1999998
    endloop
endfacet
facet normal 0 0 -1
    outer loop
        vertex 21.90625 18.55 -3.1999998
        vertex 24.096874 18.55 -3.1999998
        vertex 24 18.475 -3.1999998
    endloop
endfacet
facet normal 0 0 -1
    outer loop
        vertex 28 17.425001 -3.1999998
        vertex 28 18.475 -3.1999998
        vertex 28.478125 18.55 -3.1999998
    endloop
endfacet
facet normal 0 0 -1
    outer loop
        vertex 26.2875 18.55 -3.1999998
        vertex 28.478125 18.55 -3.1999998
        vertex 27 18.475 -3.1999998
    endloop
endfacet
facet normal 0 0 -1
    outer loop
        vertex 17.525 18.55 -3.1999998
        vertex 19.715626 18.55 -3.1999998
        vertex 17.525 17.349998 -3.1999998
    endloop
endfacet
facet normal 0 0 -1
    outer loop
        vertex 0 18.55 -3.1999998
        vertex 17.525 18.55 -3.1999998
        vertex 0 17.349998 -3.1999998
    endloop
endfacet
facet normal -0 -0 -1
    outer loop
        vertex 20 18.475 -3.1999998
        vertex 20 17.425001 -3.1999998
        vertex 19.715626 18.55 -3.1999998
    endloop
endfacet
facet normal 0 0 -1
    outer loop
        vertex -19.715626 18.55 -3.1999998
        vertex -17.525 18.55 -3.1999998
        vertex -17.525 17.349998 -3.1999998
    endloop
endfacet
facet normal -0 0 -1
    outer loop
        vertex 21 17.425001 -3.1999998
        vertex 19.715626 17.349998 -3.1999998
        vertex 20 17.425001 -3.1999998
    endloop
endfacet
facet normal 0 0 -1
    outer loop
        vertex 17.525 17.349998 -3.1999998
        vertex 0 17.349998 -3.1999998
        vertex 17.525 18.55 -3.1999998
    endloop
endfacet
facet normal 0 0 -1
    outer loop
        vertex 28.478125 17.349998 -3.1999998
        vertex 26.2875 17.349998 -3.1999998
        vertex 27 17.425001 -3.1999998
    endloop
endfacet
facet normal 0 0 -1
    outer loop
        vertex 27 18.475 -3.1999998
        vertex 28.478125 18.55 -3.1999998
        vertex 28 18.475 -3.1999998
    endloop
endfacet
facet normal 0 0 -1
    outer loop
        vertex 30.66875 18.55 -3.1999998
        vertex 35.05 18.55 -3.1999998
        vertex 35.05 17.349998 -3.1999998
    endloop
endfacet
facet normal 0 0 -1
    outer loop
        vertex -17.525 17.349998 -3.1999998
        vertex -17.525 18.55 -3.1999998
        vertex 0 17.349998 -3.1999998
    endloop
endfacet
facet normal 0 0 -1
    outer loop
        vertex -24.096874 17.349998 -3.1999998
        vertex -26.2875 17.349998 -3.1999998
        vertex -25 17.425001 -3.1999998
    endloop
endfacet
facet normal 0 0 -1
    outer loop
        vertex -35.05 18.55 -3.1999998
        vertex -30.66875 18.55 -3.1999998
        vertex -35.05 17.349998 -3.1999998
    endloop
endfacet
facet normal 0 0 -1
    outer loop
        vertex -19.715626 18.55 -3.1999998
        vertex -20 18.475 -3.1999998
        vertex -21 18.475 -3.1999998
    endloop
endfacet
facet normal -0 -0 -1
    outer loop
        vertex 30.66875 18.55 -3.1999998
        vertex 30.66875 17.349998 -3.1999998
        vertex 28.478125 18.55 -3.1999998
    endloop
endfacet
facet normal 0 0 -1
    outer loop
        vertex 19.715626 17.349998 -3.1999998
        vertex 17.525 17.349998 -3.1999998
        vertex 19.715626 18.55 -3.1999998
    endloop
endfacet
facet normal 0 0 -1
    outer loop
        vertex 28.478125 17.349998 -3.1999998
        vertex 28 17.425001 -3.1999998
        vertex 28.478125 18.55 -3.1999998
    endloop
endfacet
facet normal 0 0 -1
    outer loop
        vertex -30.66875 17.349998 -3.1999998
        vertex -35.05 17.349998 -3.1999998
        vertex -30.66875 18.55 -3.1999998
    endloop
endfacet
facet normal 0 0 -1
    outer loop
        vertex -28.478125 17.349998 -3.1999998
        vertex -30.66875 17.349998 -3.1999998
        vertex -28.478125 18.55 -3.1999998
    endloop
endfacet
facet normal 0 0 -1
    outer loop
        vertex -28 17.425001 -3.1999998
        vertex -28.478125 18.55 -3.1999998
        vertex -28 18.475 -3.1999998
    endloop
endfacet
facet normal 0 -0 -0.99999994
    outer loop
        vertex -19.715626 18.55 -3.1999998
        vertex -19.715626 17.349998 -3.1999998
        vertex -20 17.425001 -3.1999998
    endloop
endfacet
facet normal 0 0 -1
    outer loop
        vertex 35.05 17.349998 -3.1999998
        vertex 30.66875 17.349998 -3.1999998
        vertex 30.66875 18.55 -3.1999998
    endloop
endfacet
facet normal 1 -0 0
    outer loop
        vertex -39.35 -13.05 0
        vertex -39.35 -13.05 -3.1999998
        vertex -39.35 -0 0
    endloop
endfacet
facet normal 1 0 0
    outer loop
        vertex -39.35 -0 0
        vertex -39.35 -13.05 -3.1999998
        vertex -39.35 13.05 -3.1999998
    endloop
endfacet
facet normal 1 0 0
    outer loop
        vertex -39.35 13.05 0
        vertex -39.35 -0 0
        vertex -39.35 13.05 -3.1999998
    endloop
endfacet
facet normal 0 1 0
    outer loop
        vertex -39.35 13.05 0
        vertex -39.35 13.05 -3.1999998
        vertex -40.55 13.05 0
    endloop
endfacet
facet normal 0 1 0
    outer loop
        vertex -40.55 13.05 0
        vertex -39.35 13.05 -3.1999998
        vertex -40.55 13.05 -3.1999998
    endloop
endfacet
facet normal -1 -0 -0
    outer loop
        vertex -40.55 13.05 0
        vertex -40.55 13.05 -3.1999998
        vertex -40.55 -0 0
    endloop
endfacet
facet normal -1 0 -0
    outer loop
        vertex -40.55 -0 0
        vertex -40.55 13.05 -3.1999998
        vertex -40.55 -13.05 -3.1999998
    endloop
endfacet
facet normal -1 0 0
    outer loop
        vertex -40.55 -13.05 0
        vertex -40.55 -0 0
        vertex -40.55 -13.05 -3.1999998
    endloop
endfacet
facet normal 0 -1 0
    outer loop
        vertex -40.55 -13.05 0
        vertex -40.55 -13.05 -3.1999998
        vertex -39.35 -13.05 0
    endloop
endfacet
facet normal 0 -1 -0
    outer loop
        vertex -39.35 -13.05 0
        vertex -40.55 -13.05 -3.1999998
        vertex -39.35 -13.05 -3.1999998
    endloop
endfacet
facet normal 0 0 -0.99999994
    outer loop
        vertex -40.55 -13.05 -3.1999998
        vertex -40.55 13.05 -3.1999998
        vertex -39.35 -13.05 -3.1999998
    endloop
endfacet
facet normal 0 0 -0.99999994
    outer loop
        vertex -40.55 13.05 -3.1999998
        vertex -39.35 13.05 -3.1999998
        vertex -39.35 -13.05 -3.1999998
    endloop
endfacet
facet normal 1 -0 0
    outer loop
        vertex 40.55 -13.05 0
        vertex 40.55 -13.05 -3.1999998
        vertex 40.55 -0 0
    endloop
endfacet
facet normal 1 0 0
    outer loop
        vertex 40.55 -0 0
        vertex 40.55 -13.05 -3.1999998
        vertex 40.55 13.05 -3.1999998
    endloop
endfacet
facet normal 1 0 0
    outer loop
        vertex 40.55 13.05 0
        vertex 40.55 -0 0
        vertex 40.55 13.05 -3.1999998
    endloop
endfacet
facet normal 0 1 0
    outer loop
        vertex 40.55 13.05 0
        vertex 40.55 13.05 -3.1999998
        vertex 39.35 13.05 0
    endloop
endfacet
facet normal 0 1 0
    outer loop
        vertex 39.35 13.05 0
        vertex 40.55 13.05 -3.1999998
        vertex 39.35 13.05 -3.1999998
    endloop
endfacet
facet normal -1 -0 -0
    outer loop
        vertex 39.35 13.05 0
        vertex 39.35 13.05 -3.1999998
        vertex 39.35 -0 0
    endloop
endfacet
facet normal -1 0 -0
    outer loop
        vertex 39.35 -0 0
        vertex 39.35 13.05 -3.1999998
        vertex 39.35 -13.05 -3.1999998
    endloop
endfacet
facet normal -1 0 0
    outer loop
        vertex 39.35 -13.05 0
        vertex 39.35 -0 0
        vertex 39.35 -13.05 -3.1999998
    endloop
endfacet
facet normal 0 -1 0
    outer loop
        vertex 39.35 -13.05 0
        vertex 39.35 -13.05 -3.1999998
        vertex 40.55 -13.05 0
    endloop
endfacet
facet normal 0 -1 -0
    outer loop
        vertex 40.55 -13.05 0
        vertex 39.35 -13.05 -3.1999998
        vertex 40.55 -13.05 -3.1999998
    endloop
endfacet
facet normal 0 0 -0.99999994
    outer loop
        vertex 39.35 -13.05 -3.1999998
        vertex 39.35 13.05 -3.1999998
        vertex 40.55 -13.05 -3.1999998
    endloop
endfacet
facet normal 0 0 -0.99999994
    outer loop
        vertex 39.35 13.05 -3.1999998
        vertex 40.55 13.05 -3.1999998
        vertex 40.55 -13.05 -3.1999998
    endloop
endfacet
facet normal 0 0 -1
    outer loop
        vertex -28 -17.425001 -4.7
        vertex -20 -17.425001 -4.7
        vertex -28 -19.125 -4.7
    endloop
endfacet
facet normal 0 -0 -1
    outer loop
        vertex -20 -17.425001 -4.7
        vertex -20 -19.125 -4.7
        vertex -28 -19.125 -4.7
    endloop
endfacet
facet normal 0 0 -1
    outer loop
        vertex 20 -17.425001 -4.7
        vertex 28 -17.425001 -4.7
        vertex 20 -19.125 -4.7
    endloop
endfacet
facet normal 0 -0 -1
    outer loop
        vertex 28 -17.425001 -4.7
        vertex 28 -19.125 -4.7
        vertex 20 -19.125 -4.7
    endloop
endfacet
facet normal 0 0 -1
    outer loop
        vertex -20 17.425001 -4.7
        vertex -28 17.425001 -4.7
        vertex -20 19.125 -4.7
    endloop
endfacet
facet normal 0 0 -1
    outer loop
        vertex -28 17.425001 -4.7
        vertex -28 19.125 -4.7
        vertex -20 19.125 -4.7
    endloop
endfacet
facet normal 1 0 0
    outer loop
        vertex 28 17.425001 -4.7
        vertex 28 19.125 -4.7
        vertex 28 18.475 -3.9499998
    endloop
endfacet
facet normal 1 -0 0
    outer loop
        vertex 28 18.475 -3.9499998
        vertex 28 19.125 -4.7
        vertex 28 19.125 -3.9499998
    endloop
endfacet
facet normal 0.99999994 0 0
    outer loop
        vertex 28 18.475 -3.9499998
        vertex 28 17.425001 -3.9499998
        vertex 28 17.425001 -4.7
    endloop
endfacet
facet normal -1 0 0
    outer loop
        vertex 20 19.125 -4.7
        vertex 20 17.425001 -4.7
        vertex 20 18.475 -3.9499998
    endloop
endfacet
facet normal -0.99999994 -0 0
    outer loop
        vertex 20 18.475 -3.9499998
        vertex 20 17.425001 -4.7
        vertex 20 17.425001 -3.9499998
    endloop
endfacet
facet normal -1 0 0
    outer loop
        vertex 20 18.475 -3.9499998
        vertex 20 19.125 -3.9499998
        vertex 20 19.125 -4.7
    endloop
endfacet
facet normal 0 0 -1
    outer loop
        vertex 28 17.425001 -4.7
        vertex 20 17.425001 -4.7
        vertex 28 19.125 -4.7
    endloop
endfacet
facet normal 0 0 -1
    outer loop
        vertex 20 17.425001 -4.7
        vertex 20 19.125 -4.7
        vertex 28 19.125 -4.7
    endloop
endfacet
facet normal 0 -1 0
    outer loop
        vertex -28 -19.125 -3.9499998
        vertex -28 -19.125 -4.7
        vertex -20 -19.125 -3.9499998
    endloop
endfacet
facet normal 0 -1 -0
    outer loop
        vertex -20 -19.125 -3.9499998
        vertex -28 -19.125 -4.7
        vertex -20 -19.125 -4.7
    endloop
endfacet
facet normal 0 0 1
    outer loop
        vertex -28 -19.125 -3.9499998
        vertex -20 -19.125 -3.9499998
        vertex -28 -18.475 -3.9499998
    endloop
endfacet
facet normal -0 0 1
    outer loop
        vertex -24 -18.475 -3.9499998
        vertex -20 -19.125 -3.9499998
        vertex -20 -18.475 -3.9499998
    endloop
endfacet
facet normal -0 0 1
    outer loop
        vertex -28 -18.475 -3.9499998
        vertex -20 -19.125 -3.9499998
        vertex -24 -18.475 -3.9499998
    endloop
endfacet
facet normal 0 -1 0
    outer loop
        vertex -24 -18.475 -3.9499998
        vertex -24 -18.475 -3.1999998
        vertex -24.5 -18.475 -3.1999998
    endloop
endfacet
facet normal 0 -1 0
    outer loop
        vertex -28 -18.475 -3.9499998
        vertex -27 -18.475 -3.1999998
        vertex -28 -18.475 -3.1999998
    endloop
endfacet
facet normal 0 -1 -0
    outer loop
        vertex -27 -18.475 -3.1999998
        vertex -28 -18.475 -3.9499998
        vertex -26.5 -18.475 -3.1999998
    endloop
endfacet
facet normal 0 -1 -0
    outer loop
        vertex -26.5 -18.475 -3.1999998
        vertex -28 -18.475 -3.9499998
        vertex -26 -18.475 -3.1999998
    endloop
endfacet
facet normal 0 -1 -0
    outer loop
        vertex -26 -18.475 -3.1999998
        vertex -28 -18.475 -3.9499998
        vertex -24 -18.475 -3.9499998
    endloop
endfacet
facet normal -0 -1 -0
    outer loop
        vertex -25 -18.475 -3.1999998
        vertex -26 -18.475 -3.1999998
        vertex -24 -18.475 -3.9499998
    endloop
endfacet
facet normal -0 -1 -0
    outer loop
        vertex -24.5 -18.475 -3.1999998
        vertex -25 -18.475 -3.1999998
        vertex -24 -18.475 -3.9499998
    endloop
endfacet
facet normal -0 -1 0
    outer loop
        vertex -22 -18.475 -3.1999998
        vertex -24 -18.475 -3.1999998
        vertex -24 -18.475 -3.9499998
    endloop
endfacet
facet normal 0 -1 0
    outer loop
        vertex -20 -18.475 -3.9499998
        vertex -22 -18.475 -3.1999998
        vertex -24 -18.475 -3.9499998
    endloop
endfacet
facet normal 0 -1 0
    outer loop
        vertex -21 -18.475 -3.1999998
        vertex -20 -18.475 -3.9499998
        vertex -20 -18.475 -3.1999998
    endloop
endfacet
facet normal 0 -1 0
    outer loop
        vertex -22 -18.475 -3.1999998
        vertex -20 -18.475 -3.9499998
        vertex -21.5 -18.475 -3.1999998
    endloop
endfacet
facet normal -0 -1 -0
    outer loop
        vertex -21 -18.475 -3.1999998
        vertex -21.5 -18.475 -3.1999998
        vertex -20 -18.475 -3.9499998
    endloop
endfacet
facet normal -0.99999994 0 -0
    outer loop
        vertex -28 -17.425001 -3.1999998
        vertex -28 -17.425001 -4.7
        vertex -28 -18.475 -3.9499998
    endloop
endfacet
facet normal -0.99999994 0 0
    outer loop
        vertex -28 -18.475 -3.9499998
        vertex -28 -18.475 -3.1999998
        vertex -28 -17.425001 -3.1999998
    endloop
endfacet
facet normal -1 0 0
    outer loop
        vertex -28 -19.125 -3.9499998
        vertex -28 -18.475 -3.9499998
        vertex -28 -19.125 -4.7
    endloop
endfacet
facet normal -1 0 0
    outer loop
        vertex -28 -17.425001 -4.7
        vertex -28 -19.125 -4.7
        vertex -28 -18.475 -3.9499998
    endloop
endfacet
facet normal 0 1 0
    outer loop
        vertex -20 -17.425001 -3.1999998
        vertex -20 -17.425001 -4.7
        vertex -21 -17.425001 -3.1999998
    endloop
endfacet
facet normal 0 1 0
    outer loop
        vertex -21 -17.425001 -3.1999998
        vertex -20 -17.425001 -4.7
        vertex -21.5 -17.425001 -3.1999998
    endloop
endfacet
facet normal 0 1 0
    outer loop
        vertex -21.5 -17.425001 -3.1999998
        vertex -20 -17.425001 -4.7
        vertex -22 -17.425001 -3.1999998
    endloop
endfacet
facet normal 0 1 0
    outer loop
        vertex -22 -17.425001 -3.1999998
        vertex -20 -17.425001 -4.7
        vertex -24 -17.425001 -3.1999998
    endloop
endfacet
facet normal 0 1 0
    outer loop
        vertex -24 -17.425001 -3.1999998
        vertex -20 -17.425001 -4.7
        vertex -28 -17.425001 -4.7
    endloop
endfacet
facet normal -0 1 0
    outer loop
        vertex -24.5 -17.425001 -3.1999998
        vertex -24 -17.425001 -3.1999998
        vertex -28 -17.425001 -4.7
    endloop
endfacet
facet normal -0 1 0
    outer loop
        vertex -25 -17.425001 -3.1999998
        vertex -24.5 -17.425001 -3.1999998
        vertex -28 -17.425001 -4.7
    endloop
endfacet
facet normal -0 1 0
    outer loop
        vertex -26 -17.425001 -3.1999998
        vertex -25 -17.425001 -3.1999998
        vertex -28 -17.425001 -4.7
    endloop
endfacet
facet normal -0 1 0
    outer loop
        vertex -26.5 -17.425001 -3.1999998
        vertex -26 -17.425001 -3.1999998
        vertex -28 -17.425001 -4.7
    endloop
endfacet
facet normal -0 1 0
    outer loop
        vertex -27 -17.425001 -3.1999998
        vertex -26.5 -17.425001 -3.1999998
        vertex -28 -17.425001 -4.7
    endloop
endfacet
facet normal -0 1 0
    outer loop
        vertex -28 -17.425001 -3.1999998
        vertex -27 -17.425001 -3.1999998
        vertex -28 -17.425001 -4.7
    endloop
endfacet
facet normal 0.99999994 -0 0
    outer loop
        vertex -20 -18.475 -3.1999998
        vertex -20 -18.475 -3.9499998
        vertex -20 -17.425001 -3.1999998
    endloop
endfacet
facet normal 0.99999994 0 0
    outer loop
        vertex -20 -17.425001 -3.1999998
        vertex -20 -18.475 -3.9499998
        vertex -20 -17.425001 -4.7
    endloop
endfacet
facet normal 1 0 0
    outer loop
        vertex -20 -18.475 -3.9499998
        vertex -20 -19.125 -3.9499998
        vertex -20 -19.125 -4.7
    endloop
endfacet
facet normal 1 0 0
    outer loop
        vertex -20 -19.125 -4.7
        vertex -20 -17.425001 -4.7
        vertex -20 -18.475 -3.9499998
    endloop
endfacet
facet normal 0 -1 0
    outer loop
        vertex 20 -19.125 -3.9499998
        vertex 20 -19.125 -4.7
        vertex 28 -19.125 -3.9499998
    endloop
endfacet
facet normal 0 -1 -0
    outer loop
        vertex 28 -19.125 -3.9499998
        vertex 20 -19.125 -4.7
        vertex 28 -19.125 -4.7
    endloop
endfacet
facet normal 0 0 1
    outer loop
        vertex 20 -19.125 -3.9499998
        vertex 28 -19.125 -3.9499998
        vertex 20 -18.475 -3.9499998
    endloop
endfacet
facet normal -0 0 1
    outer loop
        vertex 24 -18.475 -3.9499998
        vertex 28 -19.125 -3.9499998
        vertex 28 -18.475 -3.9499998
    endloop
endfacet
facet normal -0 0 1
    outer loop
        vertex 20 -18.475 -3.9499998
        vertex 28 -19.125 -3.9499998
        vertex 24 -18.475 -3.9499998
    endloop
endfacet
facet normal 0 -1 0
    outer loop
        vertex 24 -18.475 -3.9499998
        vertex 24 -18.475 -3.1999998
        vertex 22 -18.475 -3.1999998
    endloop
endfacet
facet normal 0 -1 0
    outer loop
        vertex 20 -18.475 -3.9499998
        vertex 21 -18.475 -3.1999998
        vertex 20 -18.475 -3.1999998
    endloop
endfacet
facet normal 0 -1 -0
    outer loop
        vertex 21 -18.475 -3.1999998
        vertex 20 -18.475 -3.9499998
        vertex 21.5 -18.475 -3.1999998
    endloop
endfacet
facet normal 0 -1 -0
    outer loop
        vertex 21.5 -18.475 -3.1999998
        vertex 20 -18.475 -3.9499998
        vertex 22 -18.475 -3.1999998
    endloop
endfacet
facet normal 0 -1 -0
    outer loop
        vertex 22 -18.475 -3.1999998
        vertex 20 -18.475 -3.9499998
        vertex 24 -18.475 -3.9499998
    endloop
endfacet
facet normal -0 -1 0
    outer loop
        vertex 24.5 -18.475 -3.1999998
        vertex 24 -18.475 -3.1999998
        vertex 24 -18.475 -3.9499998
    endloop
endfacet
facet normal -0 -1 0
    outer loop
        vertex 25 -18.475 -3.1999998
        vertex 24.5 -18.475 -3.1999998
        vertex 24 -18.475 -3.9499998
    endloop
endfacet
facet normal -0 -1 0
    outer loop
        vertex 26 -18.475 -3.1999998
        vertex 25 -18.475 -3.1999998
        vertex 24 -18.475 -3.9499998
    endloop
endfacet
facet normal 0 -1 0
    outer loop
        vertex 28 -18.475 -3.9499998
        vertex 26 -18.475 -3.1999998
        vertex 24 -18.475 -3.9499998
    endloop
endfacet
facet normal 0 -1 0
    outer loop
        vertex 27 -18.475 -3.1999998
        vertex 28 -18.475 -3.9499998
        vertex 28 -18.475 -3.1999998
    endloop
endfacet
facet normal 0 -1 0
    outer loop
        vertex 26 -18.475 -3.1999998
        vertex 28 -18.475 -3.9499998
        vertex 26.5 -18.475 -3.1999998
    endloop
endfacet
facet normal -0 -1 -0
    outer loop
        vertex 27 -18.475 -3.1999998
        vertex 26.5 -18.475 -3.1999998
        vertex 28 -18.475 -3.9499998
    endloop
endfacet
facet normal -0.99999994 0 -0
    outer loop
        vertex 20 -17.425001 -3.1999998
        vertex 20 -17.425001 -4.7
        vertex 20 -18.475 -3.9499998
    endloop
endfacet
facet normal -0.99999994 0 0
    outer loop
        vertex 20 -18.475 -3.9499998
        vertex 20 -18.475 -3.1999998
        vertex 20 -17.425001 -3.1999998
    endloop
endfacet
facet normal -1 0 0
    outer loop
        vertex 20 -19.125 -3.9499998
        vertex 20 -18.475 -3.9499998
        vertex 20 -19.125 -4.7
    endloop
endfacet
facet normal -1 0 0
    outer loop
        vertex 20 -17.425001 -4.7
        vertex 20 -19.125 -4.7
        vertex 20 -18.475 -3.9499998
    endloop
endfacet
facet normal 0 1 0
    outer loop
        vertex 28 -17.425001 -3.1999998
        vertex 28 -17.425001 -4.7
        vertex 27 -17.425001 -3.1999998
    endloop
endfacet
facet normal 0 1 0
    outer loop
        vertex 27 -17.425001 -3.1999998
        vertex 28 -17.425001 -4.7
        vertex 26.5 -17.425001 -3.1999998
    endloop
endfacet
facet normal 0 1 0
    outer loop
        vertex 26.5 -17.425001 -3.1999998
        vertex 28 -17.425001 -4.7
        vertex 26 -17.425001 -3.1999998
    endloop
endfacet
facet normal 0 1 0
    outer loop
        vertex 26 -17.425001 -3.1999998
        vertex 28 -17.425001 -4.7
        vertex 25 -17.425001 -3.1999998
    endloop
endfacet
facet normal 0 1 0
    outer loop
        vertex 25 -17.425001 -3.1999998
        vertex 28 -17.425001 -4.7
        vertex 24.5 -17.425001 -3.1999998
    endloop
endfacet
facet normal 0 1 0
    outer loop
        vertex 24.5 -17.425001 -3.1999998
        vertex 28 -17.425001 -4.7
        vertex 24 -17.425001 -3.1999998
    endloop
endfacet
facet normal 0 1 0
    outer loop
        vertex 24 -17.425001 -3.1999998
        vertex 28 -17.425001 -4.7
        vertex 20 -17.425001 -4.7
    endloop
endfacet
facet normal -0 1 0
    outer loop
        vertex 22 -17.425001 -3.1999998
        vertex 24 -17.425001 -3.1999998
        vertex 20 -17.425001 -4.7
    endloop
endfacet
facet normal -0 1 0
    outer loop
        vertex 21.5 -17.425001 -3.1999998
        vertex 22 -17.425001 -3.1999998
        vertex 20 -17.425001 -4.7
    endloop
endfacet
facet normal -0 1 0
    outer loop
        vertex 21 -17.425001 -3.1999998
        vertex 21.5 -17.425001 -3.1999998
        vertex 20 -17.425001 -4.7
    endloop
endfacet
facet normal -0 1 0
    outer loop
        vertex 20 -17.425001 -3.1999998
        vertex 21 -17.425001 -3.1999998
        vertex 20 -17.425001 -4.7
    endloop
endfacet
facet normal 0.99999994 -0 0
    outer loop
        vertex 28 -18.475 -3.1999998
        vertex 28 -18.475 -3.9499998
        vertex 28 -17.425001 -3.1999998
    endloop
endfacet
facet normal 0.99999994 0 0
    outer loop
        vertex 28 -17.425001 -3.1999998
        vertex 28 -18.475 -3.9499998
        vertex 28 -17.425001 -4.7
    endloop
endfacet
facet normal 1 0 0
    outer loop
        vertex 28 -18.475 -3.9499998
        vertex 28 -19.125 -3.9499998
        vertex 28 -19.125 -4.7
    endloop
endfacet
facet normal 1 0 0
    outer loop
        vertex 28 -19.125 -4.7
        vertex 28 -17.425001 -4.7
        vertex 28 -18.475 -3.9499998
    endloop
endfacet
facet normal 0 1 0
    outer loop
        vertex -24 19.125 -3.9499998
        vertex -20 19.125 -4.7
        vertex -28 19.125 -3.9499998
    endloop
endfacet
facet normal 0 1 0
    outer loop
        vertex -28 19.125 -3.9499998
        vertex -20 19.125 -4.7
        vertex -28 19.125 -4.7
    endloop
endfacet
facet normal 0 1 0
    outer loop
        vertex -20 19.125 -3.9499998
        vertex -20 19.125 -4.7
        vertex -24 19.125 -3.9499998
    endloop
endfacet
facet normal 0 -1 0
    outer loop
        vertex -28 17.425001 -3.1999998
        vertex -28 17.425001 -4.7
        vertex -27 17.425001 -3.1999998
    endloop
endfacet
facet normal 0 -1 -0
    outer loop
        vertex -27 17.425001 -3.1999998
        vertex -28 17.425001 -4.7
        vertex -26.5 17.425001 -3.1999998
    endloop
endfacet
facet normal 0 -1 -0
    outer loop
        vertex -26.5 17.425001 -3.1999998
        vertex -28 17.425001 -4.7
        vertex -26 17.425001 -3.1999998
    endloop
endfacet
facet normal 0 -1 -0
    outer loop
        vertex -26 17.425001 -3.1999998
        vertex -28 17.425001 -4.7
        vertex -25 17.425001 -3.1999998
    endloop
endfacet
facet normal 0 -1 -0
    outer loop
        vertex -25 17.425001 -3.1999998
        vertex -28 17.425001 -4.7
        vertex -24.5 17.425001 -3.1999998
    endloop
endfacet
facet normal 0 -1 -0
    outer loop
        vertex -24.5 17.425001 -3.1999998
        vertex -28 17.425001 -4.7
        vertex -24 17.425001 -3.1999998
    endloop
endfacet
facet normal 0 -1 -0
    outer loop
        vertex -24 17.425001 -3.1999998
        vertex -28 17.425001 -4.7
        vertex -20 17.425001 -4.7
    endloop
endfacet
facet normal -0 -1 -0
    outer loop
        vertex -22 17.425001 -3.1999998
        vertex -24 17.425001 -3.1999998
        vertex -20 17.425001 -4.7
    endloop
endfacet
facet normal -0 -1 -0
    outer loop
        vertex -21.5 17.425001 -3.1999998
        vertex -22 17.425001 -3.1999998
        vertex -20 17.425001 -4.7
    endloop
endfacet
facet normal -0 -1 -0
    outer loop
        vertex -21 17.425001 -3.1999998
        vertex -21.5 17.425001 -3.1999998
        vertex -20 17.425001 -4.7
    endloop
endfacet
facet normal -0 -1 -0
    outer loop
        vertex -20 17.425001 -3.1999998
        vertex -21 17.425001 -3.1999998
        vertex -20 17.425001 -4.7
    endloop
endfacet
facet normal -0.99999994 -0 -0
    outer loop
        vertex -28 18.475 -3.1999998
        vertex -28 18.475 -3.9499998
        vertex -28 17.425001 -3.1999998
    endloop
endfacet
facet normal -0.99999994 0 0
    outer loop
        vertex -28 17.425001 -3.1999998
        vertex -28 18.475 -3.9499998
        vertex -28 17.425001 -4.7
    endloop
endfacet
facet normal -1 0 0
    outer loop
        vertex -28 18.475 -3.9499998
        vertex -28 19.125 -3.9499998
        vertex -28 19.125 -4.7
    endloop
endfacet
facet normal -1 0 0
    outer loop
        vertex -28 19.125 -4.7
        vertex -28 17.425001 -4.7
        vertex -28 18.475 -3.9499998
    endloop
endfacet
facet normal 0 1 0
    outer loop
        vertex -24 18.475 -3.9499998
        vertex -24 18.475 -3.1999998
        vertex -22 18.475 -3.1999998
    endloop
endfacet
facet normal 0 1 -0
    outer loop
        vertex -20 18.475 -3.9499998
        vertex -21 18.475 -3.1999998
        vertex -20 18.475 -3.1999998
    endloop
endfacet
facet normal 0 1 0
    outer loop
        vertex -21 18.475 -3.1999998
        vertex -20 18.475 -3.9499998
        vertex -21.5 18.475 -3.1999998
    endloop
endfacet
facet normal 0 1 0
    outer loop
        vertex -21.5 18.475 -3.1999998
        vertex -20 18.475 -3.9499998
        vertex -22 18.475 -3.1999998
    endloop
endfacet
facet normal 0 1 0
    outer loop
        vertex -22 18.475 -3.1999998
        vertex -20 18.475 -3.9499998
        vertex -24 18.475 -3.9499998
    endloop
endfacet
facet normal -0 1 0
    outer loop
        vertex -24.5 18.475 -3.1999998
        vertex -24 18.475 -3.1999998
        vertex -24 18.475 -3.9499998
    endloop
endfacet
facet normal -0 1 0
    outer loop
        vertex -25 18.475 -3.1999998
        vertex -24.5 18.475 -3.1999998
        vertex -24 18.475 -3.9499998
    endloop
endfacet
facet normal -0 1 0
    outer loop
        vertex -26 18.475 -3.1999998
        vertex -25 18.475 -3.1999998
        vertex -24 18.475 -3.9499998
    endloop
endfacet
facet normal 0 1 0
    outer loop
        vertex -28 18.475 -3.9499998
        vertex -26 18.475 -3.1999998
        vertex -24 18.475 -3.9499998
    endloop
endfacet
facet normal 0 1 0
    outer loop
        vertex -27 18.475 -3.1999998
        vertex -28 18.475 -3.9499998
        vertex -28 18.475 -3.1999998
    endloop
endfacet
facet normal 0 1 0
    outer loop
        vertex -26 18.475 -3.1999998
        vertex -28 18.475 -3.9499998
        vertex -26.5 18.475 -3.1999998
    endloop
endfacet
facet normal -0 1 0
    outer loop
        vertex -27 18.475 -3.1999998
        vertex -26.5 18.475 -3.1999998
        vertex -28 18.475 -3.9499998
    endloop
endfacet
facet normal -0 0 1
    outer loop
        vertex -24 19.125 -3.9499998
        vertex -24 18.475 -3.9499998
        vertex -20 19.125 -3.9499998
    endloop
endfacet
facet normal 0 0 1
    outer loop
        vertex -24 18.475 -3.9499998
        vertex -20 18.475 -3.9499998
        vertex -20 19.125 -3.9499998
    endloop
endfacet
facet normal 0 0 1
    outer loop
        vertex -28 18.475 -3.9499998
        vertex -24 18.475 -3.9499998
        vertex -28 19.125 -3.9499998
    endloop
endfacet
facet normal 0 -0 1
    outer loop
        vertex -24 18.475 -3.9499998
        vertex -24 19.125 -3.9499998
        vertex -28 19.125 -3.9499998
    endloop
endfacet
facet normal 0.99999994 0 0
    outer loop
        vertex -20 17.425001 -3.1999998
        vertex -20 17.425001 -4.7
        vertex -20 18.475 -3.9499998
    endloop
endfacet
facet normal 0.99999994 0 -0
    outer loop
        vertex -20 18.475 -3.9499998
        vertex -20 18.475 -3.1999998
        vertex -20 17.425001 -3.1999998
    endloop
endfacet
facet normal 1 0 0
    outer loop
        vertex -20 19.125 -3.9499998
        vertex -20 18.475 -3.9499998
        vertex -20 19.125 -4.7
    endloop
endfacet
facet normal 1 0 0
    outer loop
        vertex -20 17.425001 -4.7
        vertex -20 19.125 -4.7
        vertex -20 18.475 -3.9499998
    endloop
endfacet
facet normal 0 1 0
    outer loop
        vertex 28 19.125 -3.9499998
        vertex 28 19.125 -4.7
        vertex 20 19.125 -3.9499998
    endloop
endfacet
facet normal 0 1 0
    outer loop
        vertex 20 19.125 -3.9499998
        vertex 28 19.125 -4.7
        vertex 20 19.125 -4.7
    endloop
endfacet
facet normal 0 -1 0
    outer loop
        vertex 20 17.425001 -3.1999998
        vertex 20 17.425001 -3.9499998
        vertex 21 17.425001 -3.1999998
    endloop
endfacet
facet normal 0 -1 0
    outer loop
        vertex 21 17.425001 -3.1999998
        vertex 20 17.425001 -3.9499998
        vertex 20 17.425001 -4.7
    endloop
endfacet
facet normal -0 -1 0
    outer loop
        vertex 21.5 17.425001 -3.1999998
        vertex 21 17.425001 -3.1999998
        vertex 20 17.425001 -4.7
    endloop
endfacet
facet normal -0 -1 0
    outer loop
        vertex 22 17.425001 -3.1999998
        vertex 21.5 17.425001 -3.1999998
        vertex 20 17.425001 -4.7
    endloop
endfacet
facet normal -0 -1 0
    outer loop
        vertex 24 17.425001 -3.1999998
        vertex 22 17.425001 -3.1999998
        vertex 20 17.425001 -4.7
    endloop
endfacet
facet normal 0 -1 0
    outer loop
        vertex 28 17.425001 -4.7
        vertex 24 17.425001 -3.1999998
        vertex 20 17.425001 -4.7
    endloop
endfacet
facet normal 0 -1 0
    outer loop
        vertex 28 17.425001 -4.7
        vertex 24.5 17.425001 -3.1999998
        vertex 24 17.425001 -3.1999998
    endloop
endfacet
facet normal 0 -1 0
    outer loop
        vertex 28 17.425001 -4.7
        vertex 25 17.425001 -3.1999998
        vertex 24.5 17.425001 -3.1999998
    endloop
endfacet
facet normal 0 -1 0
    outer loop
        vertex 28 17.425001 -4.7
        vertex 26 17.425001 -3.1999998
        vertex 25 17.425001 -3.1999998
    endloop
endfacet
facet normal 0 -1 0
    outer loop
        vertex 28 17.425001 -4.7
        vertex 26.5 17.425001 -3.1999998
        vertex 26 17.425001 -3.1999998
    endloop
endfacet
facet normal -0 -1 -0
    outer loop
        vertex 28 17.425001 -3.1999998
        vertex 27 17.425001 -3.1999998
        vertex 28 17.425001 -3.9499998
    endloop
endfacet
facet normal -0 -1 -0
    outer loop
        vertex 28 17.425001 -3.9499998
        vertex 27 17.425001 -3.1999998
        vertex 28 17.425001 -4.7
    endloop
endfacet
facet normal -0 -1 -0
    outer loop
        vertex 27 17.425001 -3.1999998
        vertex 26.5 17.425001 -3.1999998
        vertex 28 17.425001 -4.7
    endloop
endfacet
facet normal -0.99999994 0 0
    outer loop
        vertex 20 18.475 -3.9499998
        vertex 20 17.425001 -3.9499998
        vertex 20 18.475 -3.1999998
    endloop
endfacet
facet normal -0.99999994 -0 0
    outer loop
        vertex 20 18.475 -3.1999998
        vertex 20 17.425001 -3.9499998
        vertex 20 17.425001 -3.1999998
    endloop
endfacet
facet normal 0 0 1
    outer loop
        vertex 20 18.475 -3.9499998
        vertex 24 18.475 -3.9499998
        vertex 20 19.125 -3.9499998
    endloop
endfacet
facet normal -0 0 1
    outer loop
        vertex 20 19.125 -3.9499998
        vertex 28 18.475 -3.9499998
        vertex 28 19.125 -3.9499998
    endloop
endfacet
facet normal 0 -0 1
    outer loop
        vertex 24 18.475 -3.9499998
        vertex 28 18.475 -3.9499998
        vertex 20 19.125 -3.9499998
    endloop
endfacet
facet normal 0 1 0
    outer loop
        vertex 24 18.475 -3.9499998
        vertex 24 18.475 -3.1999998
        vertex 24.5 18.475 -3.1999998
    endloop
endfacet
facet normal 0 1 -0
    outer loop
        vertex 28 18.475 -3.9499998
        vertex 27 18.475 -3.1999998
        vertex 28 18.475 -3.1999998
    endloop
endfacet
facet normal 0 1 0
    outer loop
        vertex 27 18.475 -3.1999998
        vertex 28 18.475 -3.9499998
        vertex 26.5 18.475 -3.1999998
    endloop
endfacet
facet normal 0 1 0
    outer loop
        vertex 26.5 18.475 -3.1999998
        vertex 28 18.475 -3.9499998
        vertex 26 18.475 -3.1999998
    endloop
endfacet
facet normal 0 1 0
    outer loop
        vertex 26 18.475 -3.1999998
        vertex 28 18.475 -3.9499998
        vertex 24 18.475 -3.9499998
    endloop
endfacet
facet normal -0 1 0
    outer loop
        vertex 25 18.475 -3.1999998
        vertex 26 18.475 -3.1999998
        vertex 24 18.475 -3.9499998
    endloop
endfacet
facet normal -0 1 0
    outer loop
        vertex 24.5 18.475 -3.1999998
        vertex 25 18.475 -3.1999998
        vertex 24 18.475 -3.9499998
    endloop
endfacet
facet normal -0 1 0
    outer loop
        vertex 22 18.475 -3.1999998
        vertex 24 18.475 -3.1999998
        vertex 24 18.475 -3.9499998
    endloop
endfacet
facet normal 0 1 0
    outer loop
        vertex 20 18.475 -3.9499998
        vertex 22 18.475 -3.1999998
        vertex 24 18.475 -3.9499998
    endloop
endfacet
facet normal 0 1 0
    outer loop
        vertex 21 18.475 -3.1999998
        vertex 20 18.475 -3.9499998
        vertex 20 18.475 -3.1999998
    endloop
endfacet
facet normal 0 1 0
    outer loop
        vertex 22 18.475 -3.1999998
        vertex 20 18.475 -3.9499998
        vertex 21.5 18.475 -3.1999998
    endloop
endfacet
facet normal -0 1 0
    outer loop
        vertex 21 18.475 -3.1999998
        vertex 21.5 18.475 -3.1999998
        vertex 20 18.475 -3.9499998
    endloop
endfacet
facet normal 0.99999994 0 0
    outer loop
        vertex 28 17.425001 -3.9499998
        vertex 28 18.475 -3.9499998
        vertex 28 17.425001 -3.1999998
    endloop
endfacet
facet normal 0.99999994 -0 0
    outer loop
        vertex 28 17.425001 -3.1999998
        vertex 28 18.475 -3.9499998
        vertex 28 18.475 -3.1999998
    endloop
endfacet
endsolid unnamed
